<svg width="900" height="200" viewBox="0 0 900 200" fill="none" xmlns="http://www.w3.org/2000/svg">
<g clip-path="url(#clip0_9_2)">
<rect width="900" height="200" fill="white"/>
<path d="M330.866 86.3594H344.881C344.6 90.9531 343.334 95.0312 341.084 98.5938C338.866 102.156 335.756 104.938 331.756 106.938C327.788 108.938 323.006 109.938 317.413 109.938C313.038 109.938 309.116 109.188 305.647 107.688C302.178 106.156 299.209 103.969 296.741 101.125C294.303 98.2812 292.444 94.8438 291.163 90.8125C289.881 86.7812 289.241 82.2656 289.241 77.2656V72.5312C289.241 67.5312 289.897 63.0156 291.209 58.9844C292.553 54.9219 294.459 51.4688 296.928 48.625C299.428 45.7812 302.413 43.5938 305.881 42.0625C309.35 40.5312 313.225 39.7656 317.506 39.7656C323.194 39.7656 327.991 40.7969 331.897 42.8594C335.834 44.9219 338.881 47.7656 341.038 51.3906C343.225 55.0156 344.538 59.1406 344.975 63.7656H330.913C330.756 61.0156 330.209 58.6875 329.272 56.7812C328.334 54.8438 326.913 53.3906 325.006 52.4219C323.131 51.4219 320.631 50.9219 317.506 50.9219C315.163 50.9219 313.116 51.3594 311.366 52.2344C309.616 53.1094 308.147 54.4375 306.959 56.2188C305.772 58 304.881 60.25 304.288 62.9688C303.725 65.6562 303.444 68.8125 303.444 72.4375V77.2656C303.444 80.7969 303.709 83.9062 304.241 86.5938C304.772 89.25 305.584 91.5 306.678 93.3438C307.803 95.1562 309.241 96.5312 310.991 97.4688C312.772 98.375 314.913 98.8281 317.413 98.8281C320.35 98.8281 322.772 98.3594 324.678 97.4219C326.584 96.4844 328.038 95.0938 329.038 93.25C330.069 91.4062 330.678 89.1094 330.866 86.3594ZM431.309 37V109H417.763V37H431.309ZM461.516 37V109H447.969V37H461.516ZM558.491 58.2812V67.8438H528.959V58.2812H558.491ZM536.272 45.7656H549.772V93.7188C549.772 95.1875 549.959 96.3125 550.334 97.0938C550.741 97.875 551.334 98.4219 552.116 98.7344C552.897 99.0156 553.881 99.1562 555.069 99.1562C555.913 99.1562 556.663 99.125 557.319 99.0625C558.006 98.9688 558.584 98.875 559.053 98.7812L559.1 108.719C557.944 109.094 556.694 109.391 555.35 109.609C554.006 109.828 552.522 109.938 550.897 109.938C547.928 109.938 545.334 109.453 543.116 108.484C540.928 107.484 539.241 105.891 538.053 103.703C536.866 101.516 536.272 98.6406 536.272 95.0781V45.7656ZM591.931 99.3906C593.587 99.3906 595.056 99.0781 596.337 98.4531C597.619 97.7969 598.619 96.8906 599.337 95.7344C600.087 94.5469 600.478 93.1562 600.509 91.5625H613.212C613.181 95.125 612.228 98.2969 610.353 101.078C608.478 103.828 605.962 106 602.806 107.594C599.65 109.156 596.119 109.938 592.212 109.938C588.275 109.938 584.837 109.281 581.9 107.969C578.994 106.656 576.572 104.844 574.634 102.531C572.697 100.188 571.244 97.4688 570.275 94.375C569.306 91.25 568.822 87.9062 568.822 84.3438V82.9844C568.822 79.3906 569.306 76.0469 570.275 72.9531C571.244 69.8281 572.697 67.1094 574.634 64.7969C576.572 62.4531 578.994 60.625 581.9 59.3125C584.806 58 588.212 57.3438 592.119 57.3438C596.275 57.3438 599.916 58.1406 603.041 59.7344C606.197 61.3281 608.666 63.6094 610.447 66.5781C612.259 69.5156 613.181 73 613.212 77.0312H600.509C600.478 75.3438 600.119 73.8125 599.431 72.4375C598.775 71.0625 597.806 69.9688 596.525 69.1562C595.275 68.3125 593.728 67.8906 591.884 67.8906C589.916 67.8906 588.306 68.3125 587.056 69.1562C585.806 69.9688 584.837 71.0938 584.15 72.5312C583.462 73.9375 582.978 75.5469 582.697 77.3594C582.447 79.1406 582.322 81.0156 582.322 82.9844V84.3438C582.322 86.3125 582.447 88.2031 582.697 90.0156C582.947 91.8281 583.416 93.4375 584.103 94.8438C584.822 96.25 585.806 97.3594 587.056 98.1719C588.306 98.9844 589.931 99.3906 591.931 99.3906Z" fill="#0A0E1A"/>
<path d="M355.916 84.1562V83.1719C355.916 79.4531 356.447 76.0312 357.509 72.9062C358.572 69.75 360.119 67.0156 362.15 64.7031C364.181 62.3906 366.681 60.5938 369.65 59.3125C372.619 58 376.025 57.3438 379.869 57.3438C383.713 57.3438 387.134 58 390.134 59.3125C393.134 60.5938 395.65 62.3906 397.681 64.7031C399.744 67.0156 401.306 69.75 402.369 72.9062C403.431 76.0312 403.963 79.4531 403.963 83.1719V84.1562C403.963 87.8438 403.431 91.2656 402.369 94.4219C401.306 97.5469 399.744 100.281 397.681 102.625C395.65 104.938 393.15 106.734 390.181 108.016C387.213 109.297 383.806 109.938 379.963 109.938C376.119 109.938 372.697 109.297 369.697 108.016C366.728 106.734 364.213 104.938 362.15 102.625C360.119 100.281 358.572 97.5469 357.509 94.4219C356.447 91.2656 355.916 87.8438 355.916 84.1562ZM369.416 83.1719V84.1562C369.416 86.2812 369.603 88.2656 369.978 90.1094C370.353 91.9531 370.947 93.5781 371.759 94.9844C372.603 96.3594 373.697 97.4375 375.041 98.2188C376.384 99 378.025 99.3906 379.963 99.3906C381.838 99.3906 383.447 99 384.791 98.2188C386.134 97.4375 387.213 96.3594 388.025 94.9844C388.838 93.5781 389.431 91.9531 389.806 90.1094C390.213 88.2656 390.416 86.2812 390.416 84.1562V83.1719C390.416 81.1094 390.213 79.1719 389.806 77.3594C389.431 75.5156 388.822 73.8906 387.978 72.4844C387.166 71.0469 386.088 69.9219 384.744 69.1094C383.4 68.2969 381.775 67.8906 379.869 67.8906C377.963 67.8906 376.338 68.2969 374.994 69.1094C373.681 69.9219 372.603 71.0469 371.759 72.4844C370.947 73.8906 370.353 75.5156 369.978 77.3594C369.603 79.1719 369.416 81.1094 369.416 83.1719ZM504.847 97.5625V74.9688C504.847 73.3438 504.581 71.9531 504.05 70.7969C503.519 69.6094 502.691 68.6875 501.566 68.0312C500.472 67.375 499.05 67.0469 497.3 67.0469C495.8 67.0469 494.503 67.3125 493.409 67.8438C492.316 68.3438 491.472 69.0781 490.878 70.0469C490.284 70.9844 489.988 72.0938 489.988 73.375H476.488C476.488 71.2188 476.988 69.1719 477.988 67.2344C478.988 65.2969 480.441 63.5938 482.347 62.125C484.253 60.625 486.519 59.4531 489.144 58.6094C491.8 57.7656 494.769 57.3438 498.05 57.3438C501.988 57.3438 505.488 58 508.55 59.3125C511.613 60.625 514.019 62.5938 515.769 65.2188C517.55 67.8438 518.441 71.125 518.441 75.0625V96.7656C518.441 99.5469 518.613 101.828 518.956 103.609C519.3 105.359 519.8 106.891 520.456 108.203V109H506.816C506.159 107.625 505.659 105.906 505.316 103.844C505.003 101.75 504.847 99.6562 504.847 97.5625ZM506.628 78.1094L506.722 85.75H499.175C497.394 85.75 495.847 85.9531 494.534 86.3594C493.222 86.7656 492.144 87.3438 491.3 88.0938C490.456 88.8125 489.831 89.6562 489.425 90.625C489.05 91.5938 488.863 92.6562 488.863 93.8125C488.863 94.9688 489.128 96.0156 489.659 96.9531C490.191 97.8594 490.956 98.5781 491.956 99.1094C492.956 99.6094 494.128 99.8594 495.472 99.8594C497.503 99.8594 499.269 99.4531 500.769 98.6406C502.269 97.8281 503.425 96.8281 504.238 95.6406C505.081 94.4531 505.519 93.3281 505.55 92.2656L509.113 97.9844C508.613 99.2656 507.925 100.594 507.05 101.969C506.206 103.344 505.128 104.641 503.816 105.859C502.503 107.047 500.925 108.031 499.081 108.812C497.238 109.562 495.05 109.938 492.519 109.938C489.3 109.938 486.378 109.297 483.753 108.016C481.159 106.703 479.097 104.906 477.566 102.625C476.066 100.312 475.316 97.6875 475.316 94.75C475.316 92.0938 475.816 89.7344 476.816 87.6719C477.816 85.6094 479.284 83.875 481.222 82.4688C483.191 81.0312 485.644 79.9531 488.581 79.2344C491.519 78.4844 494.925 78.1094 498.8 78.1094H506.628Z" fill="#F7B239"/>
<line x1="294.5" y1="122.5" x2="606.5" y2="122.5" stroke="#0A0E1A" stroke-width="3"/>
<circle cx="451" cy="122.5" r="5.5" fill="#F7B239" stroke="white" stroke-width="4"/>
<path d="M301.586 139.094H304.143L310.664 155.322L317.172 139.094H319.742L311.648 159H309.652L301.586 139.094ZM300.752 139.094H303.008L303.377 151.234V159H300.752V139.094ZM318.307 139.094H320.562V159H317.938V151.234L318.307 139.094ZM333.537 156.471V148.855C333.537 148.272 333.419 147.766 333.182 147.338C332.954 146.9 332.607 146.563 332.143 146.326C331.678 146.089 331.104 145.971 330.42 145.971C329.782 145.971 329.221 146.08 328.738 146.299C328.264 146.518 327.891 146.805 327.617 147.16C327.353 147.516 327.221 147.898 327.221 148.309H324.691C324.691 147.78 324.828 147.256 325.102 146.736C325.375 146.217 325.767 145.747 326.277 145.328C326.797 144.9 327.417 144.562 328.137 144.316C328.866 144.061 329.677 143.934 330.57 143.934C331.646 143.934 332.594 144.116 333.414 144.48C334.243 144.845 334.891 145.396 335.355 146.135C335.829 146.864 336.066 147.78 336.066 148.883V155.773C336.066 156.266 336.107 156.79 336.189 157.346C336.281 157.902 336.413 158.38 336.586 158.781V159H333.947C333.82 158.708 333.719 158.321 333.646 157.838C333.574 157.346 333.537 156.89 333.537 156.471ZM333.975 150.031L334.002 151.809H331.445C330.725 151.809 330.083 151.868 329.518 151.986C328.952 152.096 328.479 152.264 328.096 152.492C327.713 152.72 327.421 153.007 327.221 153.354C327.02 153.691 326.92 154.087 326.92 154.543C326.92 155.008 327.025 155.432 327.234 155.814C327.444 156.197 327.758 156.503 328.178 156.73C328.606 156.949 329.13 157.059 329.75 157.059C330.525 157.059 331.208 156.895 331.801 156.566C332.393 156.238 332.863 155.837 333.209 155.363C333.564 154.889 333.756 154.429 333.783 153.982L334.863 155.199C334.799 155.582 334.626 156.006 334.344 156.471C334.061 156.936 333.683 157.382 333.209 157.811C332.744 158.23 332.188 158.581 331.541 158.863C330.903 159.137 330.183 159.273 329.381 159.273C328.378 159.273 327.499 159.077 326.742 158.686C325.995 158.294 325.411 157.77 324.992 157.113C324.582 156.448 324.377 155.705 324.377 154.885C324.377 154.092 324.532 153.395 324.842 152.793C325.152 152.182 325.598 151.676 326.182 151.275C326.765 150.865 327.467 150.555 328.287 150.346C329.107 150.136 330.023 150.031 331.035 150.031H333.975ZM342.574 146.531V159H340.045V144.207H342.506L342.574 146.531ZM347.195 144.125L347.182 146.477C346.972 146.431 346.771 146.404 346.58 146.395C346.398 146.376 346.188 146.367 345.951 146.367C345.368 146.367 344.853 146.458 344.406 146.641C343.96 146.823 343.581 147.078 343.271 147.406C342.962 147.734 342.715 148.126 342.533 148.582C342.36 149.029 342.246 149.521 342.191 150.059L341.48 150.469C341.48 149.576 341.567 148.737 341.74 147.953C341.923 147.169 342.201 146.477 342.574 145.875C342.948 145.264 343.422 144.79 343.996 144.453C344.579 144.107 345.272 143.934 346.074 143.934C346.257 143.934 346.466 143.956 346.703 144.002C346.94 144.038 347.104 144.079 347.195 144.125ZM358.146 155.076C358.146 154.712 358.064 154.374 357.9 154.064C357.745 153.745 357.422 153.458 356.93 153.203C356.447 152.939 355.717 152.711 354.742 152.52C353.922 152.346 353.179 152.141 352.514 151.904C351.857 151.667 351.297 151.38 350.832 151.043C350.376 150.706 350.025 150.309 349.779 149.854C349.533 149.398 349.41 148.865 349.41 148.254C349.41 147.671 349.538 147.119 349.793 146.6C350.057 146.08 350.426 145.62 350.9 145.219C351.383 144.818 351.962 144.503 352.637 144.275C353.311 144.048 354.063 143.934 354.893 143.934C356.077 143.934 357.089 144.143 357.928 144.562C358.766 144.982 359.409 145.542 359.855 146.244C360.302 146.937 360.525 147.707 360.525 148.555H357.996C357.996 148.145 357.873 147.748 357.627 147.365C357.39 146.973 357.039 146.65 356.574 146.395C356.118 146.139 355.558 146.012 354.893 146.012C354.191 146.012 353.621 146.121 353.184 146.34C352.755 146.549 352.441 146.818 352.24 147.146C352.049 147.475 351.953 147.821 351.953 148.186C351.953 148.459 351.999 148.705 352.09 148.924C352.19 149.133 352.363 149.329 352.609 149.512C352.855 149.685 353.202 149.849 353.648 150.004C354.095 150.159 354.665 150.314 355.357 150.469C356.57 150.742 357.568 151.07 358.352 151.453C359.135 151.836 359.719 152.305 360.102 152.861C360.484 153.417 360.676 154.092 360.676 154.885C360.676 155.532 360.539 156.124 360.266 156.662C360.001 157.2 359.614 157.665 359.104 158.057C358.602 158.439 358.001 158.74 357.299 158.959C356.606 159.169 355.827 159.273 354.961 159.273C353.658 159.273 352.555 159.041 351.652 158.576C350.75 158.111 350.066 157.51 349.602 156.771C349.137 156.033 348.904 155.254 348.904 154.434H351.447C351.484 155.126 351.684 155.678 352.049 156.088C352.413 156.489 352.86 156.776 353.389 156.949C353.917 157.113 354.441 157.195 354.961 157.195C355.654 157.195 356.232 157.104 356.697 156.922C357.171 156.74 357.531 156.489 357.777 156.17C358.023 155.851 358.146 155.486 358.146 155.076ZM383.398 156.854V159H373.445V156.854H383.398ZM373.965 139.094V159H371.326V139.094H373.965ZM394.486 155.582V144.207H397.029V159H394.609L394.486 155.582ZM394.965 152.465L396.018 152.438C396.018 153.422 395.913 154.333 395.703 155.172C395.503 156.001 395.174 156.721 394.719 157.332C394.263 157.943 393.666 158.421 392.928 158.768C392.189 159.105 391.292 159.273 390.234 159.273C389.514 159.273 388.854 159.169 388.252 158.959C387.66 158.749 387.149 158.426 386.721 157.988C386.292 157.551 385.96 156.981 385.723 156.279C385.495 155.577 385.381 154.734 385.381 153.75V144.207H387.91V153.777C387.91 154.443 387.983 154.994 388.129 155.432C388.284 155.86 388.489 156.202 388.744 156.457C389.008 156.703 389.3 156.876 389.619 156.977C389.947 157.077 390.285 157.127 390.631 157.127C391.706 157.127 392.559 156.922 393.188 156.512C393.816 156.092 394.268 155.532 394.541 154.83C394.824 154.119 394.965 153.331 394.965 152.465ZM406.805 157.195C407.406 157.195 407.962 157.072 408.473 156.826C408.983 156.58 409.402 156.243 409.73 155.814C410.059 155.377 410.245 154.88 410.291 154.324H412.697C412.652 155.199 412.355 156.015 411.809 156.771C411.271 157.519 410.564 158.125 409.689 158.59C408.814 159.046 407.853 159.273 406.805 159.273C405.693 159.273 404.722 159.077 403.893 158.686C403.072 158.294 402.389 157.756 401.842 157.072C401.304 156.389 400.898 155.605 400.625 154.721C400.361 153.827 400.229 152.884 400.229 151.891V151.316C400.229 150.323 400.361 149.384 400.625 148.5C400.898 147.607 401.304 146.818 401.842 146.135C402.389 145.451 403.072 144.913 403.893 144.521C404.722 144.13 405.693 143.934 406.805 143.934C407.962 143.934 408.974 144.171 409.84 144.645C410.706 145.109 411.385 145.747 411.877 146.559C412.378 147.361 412.652 148.272 412.697 149.293H410.291C410.245 148.682 410.072 148.131 409.771 147.639C409.48 147.146 409.079 146.755 408.568 146.463C408.067 146.162 407.479 146.012 406.805 146.012C406.03 146.012 405.378 146.167 404.85 146.477C404.33 146.777 403.915 147.188 403.605 147.707C403.305 148.217 403.086 148.787 402.949 149.416C402.822 150.036 402.758 150.669 402.758 151.316V151.891C402.758 152.538 402.822 153.176 402.949 153.805C403.077 154.434 403.291 155.003 403.592 155.514C403.902 156.024 404.316 156.434 404.836 156.744C405.365 157.045 406.021 157.195 406.805 157.195ZM418.289 144.207V159H415.746V144.207H418.289ZM415.555 140.283C415.555 139.873 415.678 139.527 415.924 139.244C416.179 138.962 416.553 138.82 417.045 138.82C417.528 138.82 417.897 138.962 418.152 139.244C418.417 139.527 418.549 139.873 418.549 140.283C418.549 140.675 418.417 141.012 418.152 141.295C417.897 141.568 417.528 141.705 417.045 141.705C416.553 141.705 416.179 141.568 415.924 141.295C415.678 141.012 415.555 140.675 415.555 140.283ZM426.123 159H423.594V142.648C423.594 141.582 423.785 140.684 424.168 139.955C424.56 139.217 425.12 138.661 425.85 138.287C426.579 137.904 427.445 137.713 428.447 137.713C428.739 137.713 429.031 137.731 429.322 137.768C429.623 137.804 429.915 137.859 430.197 137.932L430.061 139.996C429.869 139.951 429.65 139.919 429.404 139.9C429.167 139.882 428.93 139.873 428.693 139.873C428.156 139.873 427.691 139.982 427.299 140.201C426.916 140.411 426.624 140.721 426.424 141.131C426.223 141.541 426.123 142.047 426.123 142.648V159ZM429.268 144.207V146.148H421.256V144.207H429.268ZM437.895 159.273C436.865 159.273 435.93 159.1 435.092 158.754C434.262 158.398 433.547 157.902 432.945 157.264C432.353 156.626 431.897 155.869 431.578 154.994C431.259 154.119 431.1 153.162 431.1 152.123V151.549C431.1 150.346 431.277 149.275 431.633 148.336C431.988 147.388 432.471 146.586 433.082 145.93C433.693 145.273 434.385 144.777 435.16 144.439C435.935 144.102 436.737 143.934 437.566 143.934C438.624 143.934 439.535 144.116 440.301 144.48C441.076 144.845 441.709 145.355 442.201 146.012C442.693 146.659 443.058 147.424 443.295 148.309C443.532 149.184 443.65 150.141 443.65 151.18V152.314H432.604V150.25H441.121V150.059C441.085 149.402 440.948 148.764 440.711 148.145C440.483 147.525 440.118 147.014 439.617 146.613C439.116 146.212 438.432 146.012 437.566 146.012C436.992 146.012 436.464 146.135 435.98 146.381C435.497 146.618 435.083 146.973 434.736 147.447C434.39 147.921 434.121 148.5 433.93 149.184C433.738 149.867 433.643 150.656 433.643 151.549V152.123C433.643 152.825 433.738 153.486 433.93 154.105C434.13 154.716 434.417 155.254 434.791 155.719C435.174 156.184 435.634 156.548 436.172 156.812C436.719 157.077 437.339 157.209 438.031 157.209C438.924 157.209 439.681 157.027 440.301 156.662C440.921 156.298 441.463 155.81 441.928 155.199L443.459 156.416C443.14 156.899 442.734 157.359 442.242 157.797C441.75 158.234 441.144 158.59 440.424 158.863C439.713 159.137 438.87 159.273 437.895 159.273ZM449.133 146.531V159H446.604V144.207H449.064L449.133 146.531ZM453.754 144.125L453.74 146.477C453.531 146.431 453.33 146.404 453.139 146.395C452.956 146.376 452.747 146.367 452.51 146.367C451.926 146.367 451.411 146.458 450.965 146.641C450.518 146.823 450.14 147.078 449.83 147.406C449.52 147.734 449.274 148.126 449.092 148.582C448.919 149.029 448.805 149.521 448.75 150.059L448.039 150.469C448.039 149.576 448.126 148.737 448.299 147.953C448.481 147.169 448.759 146.477 449.133 145.875C449.507 145.264 449.98 144.79 450.555 144.453C451.138 144.107 451.831 143.934 452.633 143.934C452.815 143.934 453.025 143.956 453.262 144.002C453.499 144.038 453.663 144.079 453.754 144.125ZM487.387 138H489.93V156.129L489.711 159H487.387V138ZM499.924 151.48V151.768C499.924 152.843 499.796 153.841 499.541 154.762C499.286 155.673 498.912 156.466 498.42 157.141C497.928 157.815 497.326 158.339 496.615 158.713C495.904 159.087 495.089 159.273 494.168 159.273C493.229 159.273 492.404 159.114 491.693 158.795C490.992 158.467 490.399 157.997 489.916 157.387C489.433 156.776 489.046 156.038 488.754 155.172C488.471 154.306 488.275 153.331 488.166 152.246V150.988C488.275 149.895 488.471 148.915 488.754 148.049C489.046 147.183 489.433 146.445 489.916 145.834C490.399 145.214 490.992 144.745 491.693 144.426C492.395 144.098 493.211 143.934 494.141 143.934C495.07 143.934 495.895 144.116 496.615 144.48C497.335 144.836 497.937 145.346 498.42 146.012C498.912 146.677 499.286 147.475 499.541 148.404C499.796 149.325 499.924 150.35 499.924 151.48ZM497.381 151.768V151.48C497.381 150.742 497.312 150.049 497.176 149.402C497.039 148.746 496.82 148.172 496.52 147.68C496.219 147.178 495.822 146.786 495.33 146.504C494.838 146.212 494.232 146.066 493.512 146.066C492.874 146.066 492.318 146.176 491.844 146.395C491.379 146.613 490.982 146.91 490.654 147.283C490.326 147.648 490.057 148.067 489.848 148.541C489.647 149.006 489.497 149.489 489.396 149.99V153.285C489.542 153.923 489.779 154.538 490.107 155.131C490.445 155.714 490.891 156.193 491.447 156.566C492.012 156.94 492.71 157.127 493.539 157.127C494.223 157.127 494.806 156.99 495.289 156.717C495.781 156.434 496.178 156.047 496.479 155.555C496.788 155.062 497.016 154.493 497.162 153.846C497.308 153.199 497.381 152.506 497.381 151.768ZM505.871 144.207V159H503.328V144.207H505.871ZM503.137 140.283C503.137 139.873 503.26 139.527 503.506 139.244C503.761 138.962 504.135 138.82 504.627 138.82C505.11 138.82 505.479 138.962 505.734 139.244C505.999 139.527 506.131 139.873 506.131 140.283C506.131 140.675 505.999 141.012 505.734 141.295C505.479 141.568 505.11 141.705 504.627 141.705C504.135 141.705 503.761 141.568 503.506 141.295C503.26 141.012 503.137 140.675 503.137 140.283ZM518.545 155.076C518.545 154.712 518.463 154.374 518.299 154.064C518.144 153.745 517.82 153.458 517.328 153.203C516.845 152.939 516.116 152.711 515.141 152.52C514.32 152.346 513.577 152.141 512.912 151.904C512.256 151.667 511.695 151.38 511.23 151.043C510.775 150.706 510.424 150.309 510.178 149.854C509.932 149.398 509.809 148.865 509.809 148.254C509.809 147.671 509.936 147.119 510.191 146.6C510.456 146.08 510.825 145.62 511.299 145.219C511.782 144.818 512.361 144.503 513.035 144.275C513.71 144.048 514.462 143.934 515.291 143.934C516.476 143.934 517.488 144.143 518.326 144.562C519.165 144.982 519.807 145.542 520.254 146.244C520.701 146.937 520.924 147.707 520.924 148.555H518.395C518.395 148.145 518.271 147.748 518.025 147.365C517.788 146.973 517.438 146.65 516.973 146.395C516.517 146.139 515.956 146.012 515.291 146.012C514.589 146.012 514.02 146.121 513.582 146.34C513.154 146.549 512.839 146.818 512.639 147.146C512.447 147.475 512.352 147.821 512.352 148.186C512.352 148.459 512.397 148.705 512.488 148.924C512.589 149.133 512.762 149.329 513.008 149.512C513.254 149.685 513.6 149.849 514.047 150.004C514.493 150.159 515.063 150.314 515.756 150.469C516.968 150.742 517.966 151.07 518.75 151.453C519.534 151.836 520.117 152.305 520.5 152.861C520.883 153.417 521.074 154.092 521.074 154.885C521.074 155.532 520.938 156.124 520.664 156.662C520.4 157.2 520.012 157.665 519.502 158.057C519.001 158.439 518.399 158.74 517.697 158.959C517.005 159.169 516.225 159.273 515.359 159.273C514.056 159.273 512.953 159.041 512.051 158.576C511.148 158.111 510.465 157.51 510 156.771C509.535 156.033 509.303 155.254 509.303 154.434H511.846C511.882 155.126 512.083 155.678 512.447 156.088C512.812 156.489 513.258 156.776 513.787 156.949C514.316 157.113 514.84 157.195 515.359 157.195C516.052 157.195 516.631 157.104 517.096 156.922C517.57 156.74 517.93 156.489 518.176 156.17C518.422 155.851 518.545 155.486 518.545 155.076ZM533.01 155.076C533.01 154.712 532.928 154.374 532.764 154.064C532.609 153.745 532.285 153.458 531.793 153.203C531.31 152.939 530.581 152.711 529.605 152.52C528.785 152.346 528.042 152.141 527.377 151.904C526.721 151.667 526.16 151.38 525.695 151.043C525.24 150.706 524.889 150.309 524.643 149.854C524.396 149.398 524.273 148.865 524.273 148.254C524.273 147.671 524.401 147.119 524.656 146.6C524.921 146.08 525.29 145.62 525.764 145.219C526.247 144.818 526.826 144.503 527.5 144.275C528.174 144.048 528.926 143.934 529.756 143.934C530.941 143.934 531.952 144.143 532.791 144.562C533.63 144.982 534.272 145.542 534.719 146.244C535.165 146.937 535.389 147.707 535.389 148.555H532.859C532.859 148.145 532.736 147.748 532.49 147.365C532.253 146.973 531.902 146.65 531.438 146.395C530.982 146.139 530.421 146.012 529.756 146.012C529.054 146.012 528.484 146.121 528.047 146.34C527.618 146.549 527.304 146.818 527.104 147.146C526.912 147.475 526.816 147.821 526.816 148.186C526.816 148.459 526.862 148.705 526.953 148.924C527.053 149.133 527.227 149.329 527.473 149.512C527.719 149.685 528.065 149.849 528.512 150.004C528.958 150.159 529.528 150.314 530.221 150.469C531.433 150.742 532.431 151.07 533.215 151.453C533.999 151.836 534.582 152.305 534.965 152.861C535.348 153.417 535.539 154.092 535.539 154.885C535.539 155.532 535.402 156.124 535.129 156.662C534.865 157.2 534.477 157.665 533.967 158.057C533.465 158.439 532.864 158.74 532.162 158.959C531.469 159.169 530.69 159.273 529.824 159.273C528.521 159.273 527.418 159.041 526.516 158.576C525.613 158.111 524.93 157.51 524.465 156.771C524 156.033 523.768 155.254 523.768 154.434H526.311C526.347 155.126 526.548 155.678 526.912 156.088C527.277 156.489 527.723 156.776 528.252 156.949C528.781 157.113 529.305 157.195 529.824 157.195C530.517 157.195 531.096 157.104 531.561 156.922C532.035 156.74 532.395 156.489 532.641 156.17C532.887 155.851 533.01 155.486 533.01 155.076ZM541.404 138V159H538.861V138H541.404ZM550.441 144.207L543.988 151.111L540.379 154.857L540.174 152.164L542.758 149.074L547.352 144.207H550.441ZM548.131 159L542.854 151.945L544.166 149.689L551.111 159H548.131ZM555.801 144.207V159H553.258V144.207H555.801ZM553.066 140.283C553.066 139.873 553.189 139.527 553.436 139.244C553.691 138.962 554.064 138.82 554.557 138.82C555.04 138.82 555.409 138.962 555.664 139.244C555.928 139.527 556.061 139.873 556.061 140.283C556.061 140.675 555.928 141.012 555.664 141.295C555.409 141.568 555.04 141.705 554.557 141.705C554.064 141.705 553.691 141.568 553.436 141.295C553.189 141.012 553.066 140.675 553.066 140.283ZM562.377 147.146V159H559.834V144.207H562.24L562.377 147.146ZM561.857 151.043L560.682 151.002C560.691 149.99 560.823 149.056 561.078 148.199C561.333 147.333 561.712 146.581 562.213 145.943C562.714 145.305 563.339 144.813 564.086 144.467C564.833 144.111 565.699 143.934 566.684 143.934C567.376 143.934 568.014 144.034 568.598 144.234C569.181 144.426 569.687 144.731 570.115 145.15C570.544 145.57 570.876 146.107 571.113 146.764C571.35 147.42 571.469 148.213 571.469 149.143V159H568.939V149.266C568.939 148.491 568.807 147.871 568.543 147.406C568.288 146.941 567.923 146.604 567.449 146.395C566.975 146.176 566.419 146.066 565.781 146.066C565.034 146.066 564.41 146.199 563.908 146.463C563.407 146.727 563.006 147.092 562.705 147.557C562.404 148.021 562.186 148.555 562.049 149.156C561.921 149.749 561.857 150.378 561.857 151.043ZM571.441 149.648L569.746 150.168C569.755 149.357 569.887 148.577 570.143 147.83C570.407 147.083 570.785 146.417 571.277 145.834C571.779 145.251 572.394 144.79 573.123 144.453C573.852 144.107 574.686 143.934 575.625 143.934C576.418 143.934 577.12 144.038 577.73 144.248C578.35 144.458 578.87 144.781 579.289 145.219C579.717 145.647 580.041 146.199 580.26 146.873C580.479 147.548 580.588 148.35 580.588 149.279V159H578.045V149.252C578.045 148.423 577.913 147.78 577.648 147.324C577.393 146.859 577.029 146.536 576.555 146.354C576.09 146.162 575.534 146.066 574.887 146.066C574.331 146.066 573.839 146.162 573.41 146.354C572.982 146.545 572.622 146.809 572.33 147.146C572.038 147.475 571.815 147.853 571.66 148.281C571.514 148.71 571.441 149.165 571.441 149.648ZM587.164 138V159H584.621V138H587.164ZM595.381 157.469L599.496 144.207H602.203L596.27 161.283C596.133 161.648 595.951 162.04 595.723 162.459C595.504 162.887 595.221 163.293 594.875 163.676C594.529 164.059 594.109 164.368 593.617 164.605C593.134 164.852 592.555 164.975 591.881 164.975C591.68 164.975 591.425 164.947 591.115 164.893C590.805 164.838 590.587 164.792 590.459 164.756L590.445 162.705C590.518 162.714 590.632 162.723 590.787 162.732C590.951 162.751 591.065 162.76 591.129 162.76C591.703 162.76 592.191 162.682 592.592 162.527C592.993 162.382 593.33 162.131 593.604 161.775C593.886 161.429 594.128 160.951 594.328 160.34L595.381 157.469ZM592.359 144.207L596.201 155.691L596.857 158.357L595.039 159.287L589.598 144.207H592.359Z" fill="#0A0E1A"/>
<path d="M466.715 147.953L469.695 145.834C470.27 145.442 470.712 145.05 471.021 144.658C471.34 144.257 471.5 143.71 471.5 143.018C471.5 142.48 471.29 141.992 470.871 141.555C470.452 141.108 469.859 140.885 469.094 140.885C468.565 140.885 468.118 141.008 467.754 141.254C467.389 141.5 467.116 141.828 466.934 142.238C466.751 142.639 466.66 143.081 466.66 143.564C466.66 143.975 466.76 144.398 466.961 144.836C467.161 145.273 467.439 145.729 467.795 146.203C468.15 146.677 468.556 147.178 469.012 147.707L478.432 159H475.396L467.672 149.758C466.988 148.956 466.378 148.222 465.84 147.557C465.302 146.882 464.878 146.23 464.568 145.602C464.268 144.973 464.117 144.321 464.117 143.646C464.117 142.607 464.322 141.732 464.732 141.021C465.152 140.301 465.735 139.755 466.482 139.381C467.23 139.007 468.105 138.82 469.107 138.82C470.083 138.82 470.921 139.016 471.623 139.408C472.334 139.791 472.881 140.301 473.264 140.939C473.646 141.568 473.838 142.261 473.838 143.018C473.838 143.656 473.724 144.23 473.496 144.74C473.268 145.242 472.949 145.702 472.539 146.121C472.138 146.54 471.669 146.951 471.131 147.352L467.18 150.291C466.523 150.774 466.045 151.234 465.744 151.672C465.443 152.109 465.247 152.497 465.156 152.834C465.074 153.171 465.033 153.44 465.033 153.641C465.033 154.288 465.174 154.88 465.457 155.418C465.74 155.956 466.168 156.389 466.742 156.717C467.326 157.036 468.055 157.195 468.93 157.195C469.695 157.195 470.438 157.022 471.158 156.676C471.887 156.32 472.539 155.819 473.113 155.172C473.688 154.516 474.143 153.736 474.48 152.834C474.827 151.923 475 150.915 475 149.812H477.27C477.27 150.715 477.183 151.567 477.01 152.369C476.837 153.171 476.568 153.919 476.203 154.611C475.848 155.295 475.392 155.919 474.836 156.484C474.754 156.566 474.69 156.662 474.645 156.771C474.599 156.881 474.535 156.977 474.453 157.059C473.77 157.797 472.926 158.353 471.924 158.727C470.93 159.091 469.932 159.273 468.93 159.273C467.608 159.273 466.464 159.032 465.498 158.549C464.541 158.066 463.803 157.4 463.283 156.553C462.764 155.705 462.504 154.734 462.504 153.641C462.504 152.802 462.682 152.064 463.037 151.426C463.402 150.788 463.898 150.191 464.527 149.635C465.165 149.079 465.895 148.518 466.715 147.953Z" fill="#0A0E1A" fill-opacity="0.6"/>
<g clip-path="url(#clip1_9_2)">
<path d="M103.011 125.598C108.811 125.598 113.51 130.297 113.51 136.097C113.51 141.893 108.811 146.596 103.011 146.596C97.2148 146.596 92.5115 141.893 92.5115 136.097C92.5115 130.297 97.2148 125.598 103.011 125.598Z" fill="#B27214"/>
<path d="M52.3745 146.596C57.1484 146.596 61.0176 150.465 61.0176 155.239C61.0176 160.017 57.1484 163.886 52.3745 163.886C47.5968 163.886 43.7276 160.017 43.7276 155.239C43.7276 150.465 47.5968 146.596 52.3745 146.596Z" fill="#B27214"/>
<path d="M56.3886 94.1038C60.3087 94.1038 63.4887 97.2838 63.4887 101.208C63.4887 105.128 60.3087 108.308 56.3886 108.308C52.4646 108.308 49.2847 105.128 49.2847 101.208C49.2847 97.2838 52.4646 94.1038 56.3886 94.1038Z" fill="#B27214"/>
<path d="M71.5012 59.9352C109.367 59.9352 140.062 90.6341 140.062 128.5C140.062 166.365 109.367 197.064 71.5012 197.064C33.6317 197.064 2.93674 166.365 2.93674 128.5C2.93674 90.6341 33.6317 59.9352 71.5012 59.9352ZM113.51 136.097C113.51 130.297 108.811 125.598 103.011 125.598C97.2148 125.598 92.5115 130.297 92.5115 136.097C92.5115 141.893 97.2148 146.596 103.011 146.596C108.811 146.596 113.51 141.893 113.51 136.097ZM63.4887 101.208C63.4887 97.2838 60.3087 94.1038 56.3886 94.1038C52.4646 94.1038 49.2847 97.2838 49.2847 101.208C49.2847 105.128 52.4646 108.308 56.3886 108.308C60.3087 108.308 63.4887 105.128 63.4887 101.208ZM61.0176 155.239C61.0176 150.465 57.1484 146.596 52.3746 146.596C47.5968 146.596 43.7276 150.465 43.7276 155.239C43.7276 160.017 47.5968 163.886 52.3746 163.886C57.1484 163.886 61.0176 160.017 61.0176 155.239Z" fill="#F7B239"/>
<path d="M36.2242 128.5C36.2242 96.3744 58.3197 69.4119 88.1441 61.9739C82.8154 60.6448 77.2415 59.9352 71.5012 59.9352C33.6317 59.9352 2.93674 90.6341 2.93674 128.5C2.93674 166.365 33.6317 197.064 71.5012 197.064C77.2415 197.064 82.8154 196.354 88.1441 195.025C58.3197 187.588 36.2242 160.625 36.2242 128.5Z" fill="#E09B2D"/>
<path d="M126.366 154.598C125.983 154.598 125.595 154.523 125.221 154.364C123.728 153.732 123.03 152.008 123.663 150.514C126.619 143.537 128.118 136.13 128.118 128.5C128.118 107.697 116.715 88.602 98.3595 78.6659C96.9328 77.8936 96.4026 76.1113 97.1748 74.6847C97.9471 73.258 99.729 72.7274 101.156 73.5C121.41 84.4638 133.992 105.539 133.992 128.5C133.992 136.922 132.337 145.1 129.072 152.805C128.597 153.925 127.51 154.598 126.366 154.598Z" fill="white"/>
<path d="M87.8054 74.2378C89.4275 74.2378 90.7425 72.9228 90.7425 71.3007C90.7425 69.6786 89.4275 68.3636 87.8054 68.3636C86.1833 68.3636 84.8683 69.6786 84.8683 71.3007C84.8683 72.9228 86.1833 74.2378 87.8054 74.2378Z" fill="white"/>
<path d="M71.5 57C32.0747 57 0 89.0747 0 128.5C0 167.925 32.0747 200 71.5 200C110.925 200 143 167.925 143 128.5C143 89.0747 110.925 57 71.5 57ZM71.5 194.126C35.3141 194.126 5.87427 164.686 5.87427 128.5C5.87427 92.3137 35.3141 62.8743 71.5 62.8743C107.686 62.8743 137.126 92.3137 137.126 128.5C137.126 164.686 107.686 194.126 71.5 194.126Z" fill="#333333"/>
<path d="M56.3867 91.1675C50.8512 91.1675 46.348 95.6711 46.348 101.206C46.348 106.741 50.8512 111.245 56.3867 111.245C61.9222 111.245 66.4258 106.741 66.4258 101.206C66.4258 95.6711 61.9222 91.1675 56.3867 91.1675ZM56.3867 105.371C54.0906 105.371 52.2222 103.502 52.2222 101.206C52.2222 98.9102 54.0906 97.0417 56.3867 97.0417C58.6831 97.0417 60.5515 98.9102 60.5515 101.206C60.5515 103.502 58.6835 105.371 56.3867 105.371Z" fill="#333333"/>
<path d="M103.011 122.661C95.6025 122.661 89.5755 128.688 89.5755 136.097C89.5755 143.505 95.6025 149.532 103.011 149.532C110.419 149.532 116.446 143.505 116.446 136.097C116.446 128.688 110.419 122.661 103.011 122.661ZM103.011 143.658C98.8416 143.658 95.4498 140.266 95.4498 136.097C95.4498 131.928 98.8416 128.536 103.011 128.536C107.18 128.536 110.572 131.928 110.572 136.097C110.572 140.266 107.18 143.658 103.011 143.658Z" fill="#333333"/>
<path d="M52.373 143.658C45.9861 143.658 40.7905 148.854 40.7905 155.24C40.7905 161.627 45.9865 166.823 52.373 166.823C58.7595 166.823 63.9555 161.627 63.9555 155.24C63.9555 148.854 58.7599 143.658 52.373 143.658ZM52.373 160.949C49.2256 160.949 46.6648 158.388 46.6648 155.24C46.6648 152.093 49.2256 149.532 52.373 149.532C55.5204 149.532 58.0812 152.093 58.0812 155.24C58.0812 158.388 55.5204 160.949 52.373 160.949Z" fill="#333333"/>
<path d="M100.54 100.131C102.162 100.131 103.477 98.8158 103.477 97.1937C103.477 95.5716 102.162 94.2566 100.54 94.2566C98.9175 94.2566 97.6025 95.5716 97.6025 97.1937C97.6025 98.8158 98.9175 100.131 100.54 100.131Z" fill="#333333"/>
<path d="M35.0807 125.449C36.7029 125.449 38.0179 124.134 38.0179 122.512C38.0179 120.89 36.7029 119.575 35.0807 119.575C33.4586 119.575 32.1436 120.89 32.1436 122.512C32.1436 124.134 33.4586 125.449 35.0807 125.449Z" fill="#333333"/>
<path d="M80.7786 165.59C82.4007 165.59 83.7157 164.275 83.7157 162.653C83.7157 161.03 82.4007 159.715 80.7786 159.715C79.1565 159.715 77.8415 161.03 77.8415 162.653C77.8415 164.275 79.1565 165.59 80.7786 165.59Z" fill="#333333"/>
</g>
<g clip-path="url(#clip2_9_2)">
<path d="M862.807 63.8007C868.201 63.8007 872.572 68.1715 872.572 73.5657C872.572 78.9564 868.201 83.3308 862.807 83.3308C857.417 83.3308 853.042 78.9564 853.042 73.5657C853.042 68.1715 857.417 63.8007 862.807 63.8007Z" fill="#B27214"/>
<path d="M815.712 83.3308C820.152 83.3308 823.751 86.9294 823.751 91.3694C823.751 95.813 820.152 99.4116 815.712 99.4116C811.268 99.4116 807.67 95.813 807.67 91.3694C807.67 86.9294 811.268 83.3308 815.712 83.3308Z" fill="#B27214"/>
<path d="M819.445 34.5092C823.091 34.5092 826.049 37.4667 826.049 41.1163C826.049 44.7623 823.091 47.7198 819.445 47.7198C815.796 47.7198 812.838 44.7623 812.838 41.1163C812.838 37.4667 815.796 34.5092 819.445 34.5092Z" fill="#B27214"/>
<path d="M833.501 2.72992C868.719 2.72992 897.267 31.2821 897.267 66.4996C897.267 101.717 868.719 130.269 833.501 130.269C798.28 130.269 769.731 101.717 769.731 66.4996C769.731 31.2821 798.28 2.72992 833.501 2.72992ZM872.572 73.5657C872.572 68.1715 868.201 63.8007 862.807 63.8007C857.417 63.8007 853.042 68.1715 853.042 73.5657C853.042 78.9564 857.417 83.3308 862.807 83.3308C868.201 83.3308 872.572 78.9564 872.572 73.5657ZM826.049 41.1163C826.049 37.4667 823.091 34.5092 819.445 34.5092C815.796 34.5092 812.838 37.4667 812.838 41.1163C812.838 44.7623 815.796 47.7198 819.445 47.7198C823.091 47.7198 826.049 44.7623 826.049 41.1163ZM823.751 91.3694C823.751 86.9294 820.152 83.3308 815.712 83.3308C811.268 83.3308 807.67 86.9294 807.67 91.3694C807.67 95.813 811.268 99.4116 815.712 99.4116C820.152 99.4116 823.751 95.813 823.751 91.3694Z" fill="#F7B239"/>
<path d="M800.691 66.4996C800.691 36.621 821.241 11.544 848.98 4.62611C844.024 3.38991 838.84 2.72992 833.501 2.72992C798.28 2.72992 769.731 31.2821 769.731 66.4996C769.731 101.717 798.28 130.269 833.501 130.269C838.84 130.269 844.024 129.609 848.98 128.373C821.241 121.456 800.691 96.3783 800.691 66.4996Z" fill="#E09B2D"/>
<path d="M884.529 90.7728C884.173 90.7728 883.812 90.7032 883.465 90.5557C882.075 89.9671 881.426 88.3638 882.015 86.9746C884.765 80.4858 886.158 73.5967 886.158 66.4996C886.158 47.152 875.553 29.3921 858.481 20.1508C857.154 19.4325 856.661 17.7749 857.379 16.448C858.098 15.1211 859.755 14.6276 861.082 15.3462C879.92 25.5432 891.622 45.1444 891.622 66.4996C891.622 74.3332 890.082 81.9391 887.046 89.1057C886.604 90.1474 885.593 90.7728 884.529 90.7728Z" fill="white"/>
<path d="M848.665 16.0324C850.174 16.0324 851.397 14.8094 851.397 13.3007C851.397 11.792 850.174 10.5689 848.665 10.5689C847.156 10.5689 845.933 11.792 845.933 13.3007C845.933 14.8094 847.156 16.0324 848.665 16.0324Z" fill="white"/>
<path d="M833.5 0C796.832 0 767 29.8317 767 66.5C767 103.168 796.832 133 833.5 133C870.168 133 900 103.168 900 66.5C900 29.8317 870.168 0 833.5 0ZM833.5 127.537C799.845 127.537 772.463 100.156 772.463 66.5C772.463 32.8442 799.845 5.46348 833.5 5.46348C867.155 5.46348 894.537 32.8442 894.537 66.5C894.537 100.156 867.156 127.537 833.5 127.537Z" fill="#333333"/>
<path d="M819.444 31.7781C814.295 31.7781 810.107 35.9668 810.107 41.1149C810.107 46.2629 814.295 50.4516 819.444 50.4516C824.592 50.4516 828.781 46.2629 828.781 41.1149C828.781 35.9668 824.592 31.7781 819.444 31.7781ZM819.444 44.9881C817.308 44.9881 815.57 43.2503 815.57 41.1149C815.57 38.9794 817.308 37.2416 819.444 37.2416C821.579 37.2416 823.317 38.9794 823.317 41.1149C823.317 43.2503 821.58 44.9881 819.444 44.9881Z" fill="#333333"/>
<path d="M862.807 61.0697C855.917 61.0697 850.312 66.6752 850.312 73.5654C850.312 80.4555 855.917 86.0611 862.807 86.0611C869.697 86.0611 875.303 80.4555 875.303 73.5654C875.303 66.6752 869.697 61.0697 862.807 61.0697ZM862.807 80.598C858.93 80.598 855.775 77.4433 855.775 73.5657C855.775 69.6881 858.93 66.5335 862.807 66.5335C866.685 66.5335 869.84 69.6881 869.84 73.5657C869.84 77.4433 866.685 80.598 862.807 80.598Z" fill="#333333"/>
<path d="M815.711 80.598C809.77 80.598 804.938 85.4306 804.938 91.3705C804.938 97.3104 809.771 102.143 815.711 102.143C821.65 102.143 826.483 97.3104 826.483 91.3705C826.483 85.4306 821.651 80.598 815.711 80.598ZM815.711 96.6795C812.783 96.6795 810.401 94.2978 810.401 91.3705C810.401 88.4432 812.783 86.0614 815.711 86.0614C818.638 86.0614 821.02 88.4432 821.02 91.3705C821.02 94.2978 818.638 96.6795 815.711 96.6795Z" fill="#333333"/>
<path d="M860.509 40.1147C862.018 40.1147 863.241 38.8916 863.241 37.3829C863.241 35.8742 862.018 34.6512 860.509 34.6512C859 34.6512 857.777 35.8742 857.777 37.3829C857.777 38.8916 859 40.1147 860.509 40.1147Z" fill="#333333"/>
<path d="M799.627 63.6623C801.136 63.6623 802.359 62.4392 802.359 60.9305C802.359 59.4218 801.136 58.1988 799.627 58.1988C798.119 58.1988 796.896 59.4218 796.896 60.9305C796.896 62.4392 798.119 63.6623 799.627 63.6623Z" fill="#333333"/>
<path d="M842.13 100.996C843.638 100.996 844.861 99.773 844.861 98.2643C844.861 96.7556 843.638 95.5326 842.13 95.5326C840.621 95.5326 839.398 96.7556 839.398 98.2643C839.398 99.773 840.621 100.996 842.13 100.996Z" fill="#333333"/>
</g>
<g clip-path="url(#clip3_9_2)">
<path d="M727.027 137.978C730.069 137.978 732.533 140.443 732.533 143.484C732.533 146.524 730.069 148.991 727.027 148.991C723.987 148.991 721.52 146.524 721.52 143.484C721.52 140.443 723.987 137.978 727.027 137.978Z" fill="#B27214"/>
<path d="M700.469 148.991C702.973 148.991 705.002 151.02 705.002 153.524C705.002 156.03 702.973 158.059 700.469 158.059C697.963 158.059 695.934 156.03 695.934 153.524C695.934 151.02 697.963 148.991 700.469 148.991Z" fill="#B27214"/>
<path d="M702.574 121.46C704.63 121.46 706.298 123.128 706.298 125.186C706.298 127.242 704.63 128.91 702.574 128.91C700.516 128.91 698.849 127.242 698.849 125.186C698.849 123.128 700.516 121.46 702.574 121.46Z" fill="#B27214"/>
<path d="M710.501 103.539C730.36 103.539 746.459 119.64 746.459 139.5C746.459 159.359 730.36 175.46 710.501 175.46C690.639 175.46 674.54 159.359 674.54 139.5C674.54 119.64 690.639 103.539 710.501 103.539ZM732.533 143.484C732.533 140.443 730.069 137.978 727.027 137.978C723.987 137.978 721.52 140.443 721.52 143.484C721.52 146.524 723.987 148.991 727.027 148.991C730.069 148.991 732.533 146.524 732.533 143.484ZM706.298 125.186C706.298 123.128 704.63 121.46 702.574 121.46C700.516 121.46 698.849 123.128 698.849 125.186C698.849 127.242 700.516 128.91 702.574 128.91C704.63 128.91 706.298 127.242 706.298 125.186ZM705.002 153.524C705.002 151.02 702.973 148.991 700.469 148.991C697.963 148.991 695.934 151.02 695.934 153.524C695.934 156.03 697.963 158.059 700.469 158.059C702.973 158.059 705.002 156.03 705.002 153.524Z" fill="#F7B239"/>
<path d="M691.999 139.5C691.999 122.651 703.587 108.51 719.229 104.609C716.435 103.912 713.511 103.539 710.501 103.539C690.639 103.539 674.54 119.64 674.54 139.5C674.54 159.359 690.639 175.46 710.501 175.46C713.511 175.46 716.435 175.088 719.229 174.391C703.587 170.49 691.999 156.349 691.999 139.5Z" fill="#E09B2D"/>
<path d="M739.276 153.188C739.075 153.188 738.872 153.148 738.676 153.065C737.892 152.733 737.526 151.829 737.858 151.046C739.409 147.387 740.195 143.502 740.195 139.5C740.195 128.589 734.214 118.574 724.587 113.363C723.839 112.958 723.561 112.023 723.966 111.275C724.371 110.527 725.305 110.249 726.054 110.654C736.677 116.404 743.276 127.457 743.276 139.5C743.276 143.917 742.407 148.206 740.695 152.248C740.446 152.835 739.876 153.188 739.276 153.188Z" fill="white"/>
<path d="M719.052 111.041C719.903 111.041 720.592 110.351 720.592 109.5C720.592 108.65 719.903 107.96 719.052 107.96C718.201 107.96 717.511 108.65 717.511 109.5C717.511 110.351 718.201 111.041 719.052 111.041Z" fill="white"/>
<path d="M710.5 102C689.822 102 673 118.822 673 139.5C673 160.178 689.822 177 710.5 177C731.178 177 748 160.178 748 139.5C748 118.822 731.178 102 710.5 102ZM710.5 173.919C691.521 173.919 676.081 158.479 676.081 139.5C676.081 120.521 691.521 105.081 710.5 105.081C729.479 105.081 744.919 120.521 744.919 139.5C744.919 158.479 729.479 173.919 710.5 173.919Z" fill="#333333"/>
<path d="M702.573 119.92C699.67 119.92 697.308 122.282 697.308 125.185C697.308 128.088 699.67 130.45 702.573 130.45C705.477 130.45 707.839 128.088 707.839 125.185C707.839 122.282 705.477 119.92 702.573 119.92ZM702.573 127.369C701.369 127.369 700.389 126.389 700.389 125.185C700.389 123.981 701.369 123.001 702.573 123.001C703.778 123.001 704.758 123.981 704.758 125.185C704.758 126.389 703.778 127.369 702.573 127.369Z" fill="#333333"/>
<path d="M727.027 136.438C723.141 136.438 719.98 139.599 719.98 143.484C719.98 147.37 723.141 150.531 727.027 150.531C730.912 150.531 734.073 147.37 734.073 143.484C734.073 139.599 730.912 136.438 727.027 136.438ZM727.027 147.45C724.84 147.45 723.061 145.671 723.061 143.484C723.061 141.298 724.84 139.519 727.027 139.519C729.213 139.519 730.992 141.298 730.992 143.484C730.992 145.671 729.214 147.45 727.027 147.45Z" fill="#333333"/>
<path d="M700.468 147.45C697.119 147.45 694.394 150.175 694.394 153.525C694.394 156.874 697.119 159.599 700.468 159.599C703.818 159.599 706.543 156.874 706.543 153.525C706.543 150.175 703.818 147.45 700.468 147.45ZM700.468 156.519C698.818 156.519 697.475 155.175 697.475 153.525C697.475 151.874 698.818 150.531 700.468 150.531C702.119 150.531 703.462 151.874 703.462 153.525C703.462 155.175 702.119 156.519 700.468 156.519Z" fill="#333333"/>
<path d="M725.731 124.621C726.581 124.621 727.271 123.931 727.271 123.081C727.271 122.23 726.581 121.54 725.731 121.54C724.88 121.54 724.19 122.23 724.19 123.081C724.19 123.931 724.88 124.621 725.731 124.621Z" fill="#333333"/>
<path d="M691.399 137.9C692.25 137.9 692.939 137.21 692.939 136.359C692.939 135.509 692.25 134.819 691.399 134.819C690.548 134.819 689.859 135.509 689.859 136.359C689.859 137.21 690.548 137.9 691.399 137.9Z" fill="#333333"/>
<path d="M715.366 158.953C716.217 158.953 716.907 158.263 716.907 157.412C716.907 156.561 716.217 155.872 715.366 155.872C714.516 155.872 713.826 156.561 713.826 157.412C713.826 158.263 714.516 158.953 715.366 158.953Z" fill="#333333"/>
</g>
<g clip-path="url(#clip4_9_2)">
<path d="M197.027 44.9778C200.069 44.9778 202.533 47.4425 202.533 50.4844C202.533 53.5243 200.069 55.991 197.027 55.991C193.987 55.991 191.52 53.5243 191.52 50.4844C191.52 47.4425 193.987 44.9778 197.027 44.9778Z" fill="#B27214"/>
<path d="M170.469 55.991C172.973 55.991 175.002 58.0203 175.002 60.5241C175.002 63.0299 172.973 65.0592 170.469 65.0592C167.963 65.0592 165.934 63.0299 165.934 60.5241C165.934 58.0203 167.963 55.991 170.469 55.991Z" fill="#B27214"/>
<path d="M172.574 28.4601C174.63 28.4601 176.298 30.1279 176.298 32.1859C176.298 34.2419 174.63 35.9097 172.574 35.9097C170.516 35.9097 168.849 34.2419 168.849 32.1859C168.849 30.1279 170.516 28.4601 172.574 28.4601Z" fill="#B27214"/>
<path d="M180.501 10.5394C200.36 10.5394 216.459 26.6403 216.459 46.4998C216.459 66.3593 200.36 82.4602 180.501 82.4602C160.639 82.4602 144.54 66.3593 144.54 46.4998C144.54 26.6403 160.639 10.5394 180.501 10.5394ZM202.533 50.4844C202.533 47.4426 200.068 44.9778 197.027 44.9778C193.987 44.9778 191.52 47.4426 191.52 50.4844C191.52 53.5243 193.987 55.9911 197.027 55.9911C200.068 55.9911 202.533 53.5243 202.533 50.4844ZM176.298 32.1859C176.298 30.1278 174.63 28.46 172.574 28.46C170.516 28.46 168.849 30.1278 168.849 32.1859C168.849 34.2419 170.516 35.9097 172.574 35.9097C174.63 35.9097 176.298 34.2419 176.298 32.1859ZM175.002 60.5241C175.002 58.0203 172.973 55.9911 170.469 55.9911C167.963 55.9911 165.934 58.0203 165.934 60.5241C165.934 63.0299 167.963 65.0592 170.469 65.0592C172.973 65.0592 175.002 63.0299 175.002 60.5241Z" fill="#F7B239"/>
<path d="M161.999 46.4998C161.999 29.6509 173.587 15.5098 189.229 11.6087C186.435 10.9116 183.511 10.5394 180.501 10.5394C160.639 10.5394 144.54 26.6403 144.54 46.4998C144.54 66.3593 160.639 82.4602 180.501 82.4602C183.511 82.4602 186.435 82.088 189.229 81.3909C173.587 77.49 161.999 63.3487 161.999 46.4998Z" fill="#E09B2D"/>
<path d="M209.276 60.1876C209.075 60.1876 208.872 60.1484 208.676 60.0652C207.892 59.7333 207.526 58.8292 207.858 58.0458C209.409 54.3867 210.195 50.5019 210.195 46.4998C210.195 35.5895 204.214 25.5745 194.587 20.3632C193.839 19.9582 193.561 19.0234 193.966 18.2752C194.371 17.5269 195.305 17.2486 196.054 17.6539C206.677 23.4041 213.276 34.4573 213.276 46.4998C213.276 50.9172 212.407 55.2062 210.695 59.2476C210.446 59.835 209.876 60.1876 209.276 60.1876Z" fill="white"/>
<path d="M189.052 18.0408C189.903 18.0408 190.592 17.3511 190.592 16.5004C190.592 15.6496 189.903 14.9599 189.052 14.9599C188.201 14.9599 187.511 15.6496 187.511 16.5004C187.511 17.3511 188.201 18.0408 189.052 18.0408Z" fill="white"/>
<path d="M180.5 9C159.822 9 143 25.8224 143 46.5C143 67.1776 159.822 84 180.5 84C201.178 84 218 67.1776 218 46.5C218 25.8224 201.178 9 180.5 9ZM180.5 80.9191C161.521 80.9191 146.081 65.4788 146.081 46.5C146.081 27.5212 161.521 12.0809 180.5 12.0809C199.479 12.0809 214.919 27.5212 214.919 46.5C214.919 65.4788 199.479 80.9191 180.5 80.9191Z" fill="#333333"/>
<path d="M172.573 26.92C169.67 26.92 167.308 29.282 167.308 32.1851C167.308 35.0881 169.67 37.4501 172.573 37.4501C175.477 37.4501 177.839 35.0881 177.839 32.1851C177.839 29.282 175.477 26.92 172.573 26.92ZM172.573 34.3692C171.369 34.3692 170.389 33.3893 170.389 32.1851C170.389 30.9808 171.369 30.0009 172.573 30.0009C173.778 30.0009 174.758 30.9808 174.758 32.1851C174.758 33.3893 173.778 34.3692 172.573 34.3692Z" fill="#333333"/>
<path d="M197.027 43.4378C193.141 43.4378 189.98 46.5988 189.98 50.4842C189.98 54.3697 193.141 57.5307 197.027 57.5307C200.912 57.5307 204.073 54.3697 204.073 50.4842C204.073 46.5988 200.912 43.4378 197.027 43.4378ZM197.027 54.45C194.84 54.45 193.061 52.6711 193.061 50.4844C193.061 48.2978 194.84 46.5189 197.027 46.5189C199.213 46.5189 200.992 48.2978 200.992 50.4844C200.992 52.6711 199.213 54.45 197.027 54.45Z" fill="#333333"/>
<path d="M170.468 54.45C167.119 54.45 164.394 57.1751 164.394 60.5247C164.394 63.8743 167.119 66.5994 170.468 66.5994C173.818 66.5994 176.543 63.8743 176.543 60.5247C176.543 57.1751 173.818 54.45 170.468 54.45ZM170.468 63.5185C168.818 63.5185 167.475 62.1755 167.475 60.5247C167.475 58.874 168.818 57.5309 170.468 57.5309C172.119 57.5309 173.462 58.874 173.462 60.5247C173.462 62.1755 172.119 63.5185 170.468 63.5185Z" fill="#333333"/>
<path d="M195.731 31.6211C196.581 31.6211 197.271 30.9314 197.271 30.0806C197.271 29.2298 196.581 28.5402 195.731 28.5402C194.88 28.5402 194.19 29.2298 194.19 30.0806C194.19 30.9314 194.88 31.6211 195.731 31.6211Z" fill="#333333"/>
<path d="M161.399 44.8998C162.25 44.8998 162.939 44.2101 162.939 43.3593C162.939 42.5086 162.25 41.8189 161.399 41.8189C160.548 41.8189 159.859 42.5086 159.859 43.3593C159.859 44.2101 160.548 44.8998 161.399 44.8998Z" fill="#333333"/>
<path d="M185.366 65.9527C186.217 65.9527 186.907 65.263 186.907 64.4122C186.907 63.5614 186.217 62.8717 185.366 62.8717C184.516 62.8717 183.826 63.5614 183.826 64.4122C183.826 65.263 184.516 65.9527 185.366 65.9527Z" fill="#333333"/>
</g>
</g>
<defs>
<clipPath id="clip0_9_2">
<rect width="900" height="200" fill="white"/>
</clipPath>
<clipPath id="clip1_9_2">
<rect width="143" height="143" fill="white" transform="translate(0 57)"/>
</clipPath>
<clipPath id="clip2_9_2">
<rect width="133" height="133" fill="white" transform="translate(767)"/>
</clipPath>
<clipPath id="clip3_9_2">
<rect width="75" height="75" fill="white" transform="translate(673 102)"/>
</clipPath>
<clipPath id="clip4_9_2">
<rect width="75" height="75" fill="white" transform="translate(143 9)"/>
</clipPath>
</defs>
</svg>
