<svg width="900" height="200" viewBox="0 0 900 200" fill="none" xmlns="http://www.w3.org/2000/svg">
<g clip-path="url(#clip0_9_2)">
<rect width="900" height="200" fill="white"/>
<path d="M330.866 86.3594H344.881C344.6 90.9531 343.334 95.0312 341.084 98.5938C338.866 102.156 335.756 104.938 331.756 106.938C327.788 108.938 323.006 109.938 317.413 109.938C313.038 109.938 309.116 109.188 305.647 107.688C302.178 106.156 299.209 103.969 296.741 101.125C294.303 98.2812 292.444 94.8438 291.163 90.8125C289.881 86.7812 289.241 82.2656 289.241 77.2656V72.5312C289.241 67.5312 289.897 63.0156 291.209 58.9844C292.553 54.9219 294.459 51.4688 296.928 48.625C299.428 45.7812 302.413 43.5938 305.881 42.0625C309.35 40.5312 313.225 39.7656 317.506 39.7656C323.194 39.7656 327.991 40.7969 331.897 42.8594C335.834 44.9219 338.881 47.7656 341.038 51.3906C343.225 55.0156 344.538 59.1406 344.975 63.7656H330.913C330.756 61.0156 330.209 58.6875 329.272 56.7812C328.334 54.8438 326.913 53.3906 325.006 52.4219C323.131 51.4219 320.631 50.9219 317.506 50.9219C315.163 50.9219 313.116 51.3594 311.366 52.2344C309.616 53.1094 308.147 54.4375 306.959 56.2188C305.772 58 304.881 60.25 304.288 62.9688C303.725 65.6562 303.444 68.8125 303.444 72.4375V77.2656C303.444 80.7969 303.709 83.9062 304.241 86.5938C304.772 89.25 305.584 91.5 306.678 93.3438C307.803 95.1562 309.241 96.5312 310.991 97.4688C312.772 98.375 314.913 98.8281 317.413 98.8281C320.35 98.8281 322.772 98.3594 324.678 97.4219C326.584 96.4844 328.038 95.0938 329.038 93.25C330.069 91.4062 330.678 89.1094 330.866 86.3594ZM431.309 37V109H417.763V37H431.309ZM461.516 37V109H447.969V37H461.516ZM558.491 58.2812V67.8438H528.959V58.2812H558.491ZM536.272 45.7656H549.772V93.7188C549.772 95.1875 549.959 96.3125 550.334 97.0938C550.741 97.875 551.334 98.4219 552.116 98.7344C552.897 99.0156 553.881 99.1562 555.069 99.1562C555.913 99.1562 556.663 99.125 557.319 99.0625C558.006 98.9688 558.584 98.875 559.053 98.7812L559.1 108.719C557.944 109.094 556.694 109.391 555.35 109.609C554.006 109.828 552.522 109.938 550.897 109.938C547.928 109.938 545.334 109.453 543.116 108.484C540.928 107.484 539.241 105.891 538.053 103.703C536.866 101.516 536.272 98.6406 536.272 95.0781V45.7656ZM591.931 99.3906C593.587 99.3906 595.056 99.0781 596.337 98.4531C597.619 97.7969 598.619 96.8906 599.337 95.7344C600.087 94.5469 600.478 93.1562 600.509 91.5625H613.212C613.181 95.125 612.228 98.2969 610.353 101.078C608.478 103.828 605.962 106 602.806 107.594C599.65 109.156 596.119 109.938 592.212 109.938C588.275 109.938 584.837 109.281 581.9 107.969C578.994 106.656 576.572 104.844 574.634 102.531C572.697 100.188 571.244 97.4688 570.275 94.375C569.306 91.25 568.822 87.9062 568.822 84.3438V82.9844C568.822 79.3906 569.306 76.0469 570.275 72.9531C571.244 69.8281 572.697 67.1094 574.634 64.7969C576.572 62.4531 578.994 60.625 581.9 59.3125C584.806 58 588.212 57.3438 592.119 57.3438C596.275 57.3438 599.916 58.1406 603.041 59.7344C606.197 61.3281 608.666 63.6094 610.447 66.5781C612.259 69.5156 613.181 73 613.212 77.0312H600.509C600.478 75.3438 600.119 73.8125 599.431 72.4375C598.775 71.0625 597.806 69.9688 596.525 69.1562C595.275 68.3125 593.728 67.8906 591.884 67.8906C589.916 67.8906 588.306 68.3125 587.056 69.1562C585.806 69.9688 584.837 71.0938 584.15 72.5312C583.462 73.9375 582.978 75.5469 582.697 77.3594C582.447 79.1406 582.322 81.0156 582.322 82.9844V84.3438C582.322 86.3125 582.447 88.2031 582.697 90.0156C582.947 91.8281 583.416 93.4375 584.103 94.8438C584.822 96.25 585.806 97.3594 587.056 98.1719C588.306 98.9844 589.931 99.3906 591.931 99.3906Z" fill="#0A0E1A"/>
<path d="M355.916 84.1562V83.1719C355.916 79.4531 356.447 76.0312 357.509 72.9062C358.572 69.75 360.119 67.0156 362.15 64.7031C364.181 62.3906 366.681 60.5938 369.65 59.3125C372.619 58 376.025 57.3438 379.869 57.3438C383.713 57.3438 387.134 58 390.134 59.3125C393.134 60.5938 395.65 62.3906 397.681 64.7031C399.744 67.0156 401.306 69.75 402.369 72.9062C403.431 76.0312 403.963 79.4531 403.963 83.1719V84.1562C403.963 87.8438 403.431 91.2656 402.369 94.4219C401.306 97.5469 399.744 100.281 397.681 102.625C395.65 104.938 393.15 106.734 390.181 108.016C387.213 109.297 383.806 109.938 379.963 109.938C376.119 109.938 372.697 109.297 369.697 108.016C366.728 106.734 364.213 104.938 362.15 102.625C360.119 100.281 358.572 97.5469 357.509 94.4219C356.447 91.2656 355.916 87.8438 355.916 84.1562ZM369.416 83.1719V84.1562C369.416 86.2812 369.603 88.2656 369.978 90.1094C370.353 91.9531 370.947 93.5781 371.759 94.9844C372.603 96.3594 373.697 97.4375 375.041 98.2188C376.384 99 378.025 99.3906 379.963 99.3906C381.838 99.3906 383.447 99 384.791 98.2188C386.134 97.4375 387.213 96.3594 388.025 94.9844C388.838 93.5781 389.431 91.9531 389.806 90.1094C390.213 88.2656 390.416 86.2812 390.416 84.1562V83.1719C390.416 81.1094 390.213 79.1719 389.806 77.3594C389.431 75.5156 388.822 73.8906 387.978 72.4844C387.166 71.0469 386.088 69.9219 384.744 69.1094C383.4 68.2969 381.775 67.8906 379.869 67.8906C377.963 67.8906 376.338 68.2969 374.994 69.1094C373.681 69.9219 372.603 71.0469 371.759 72.4844C370.947 73.8906 370.353 75.5156 369.978 77.3594C369.603 79.1719 369.416 81.1094 369.416 83.1719ZM504.847 97.5625V74.9688C504.847 73.3438 504.581 71.9531 504.05 70.7969C503.519 69.6094 502.691 68.6875 501.566 68.0312C500.472 67.375 499.05 67.0469 497.3 67.0469C495.8 67.0469 494.503 67.3125 493.409 67.8438C492.316 68.3438 491.472 69.0781 490.878 70.0469C490.284 70.9844 489.988 72.0938 489.988 73.375H476.488C476.488 71.2188 476.988 69.1719 477.988 67.2344C478.988 65.2969 480.441 63.5938 482.347 62.125C484.253 60.625 486.519 59.4531 489.144 58.6094C491.8 57.7656 494.769 57.3438 498.05 57.3438C501.988 57.3438 505.488 58 508.55 59.3125C511.613 60.625 514.019 62.5938 515.769 65.2188C517.55 67.8438 518.441 71.125 518.441 75.0625V96.7656C518.441 99.5469 518.613 101.828 518.956 103.609C519.3 105.359 519.8 106.891 520.456 108.203V109H506.816C506.159 107.625 505.659 105.906 505.316 103.844C505.003 101.75 504.847 99.6562 504.847 97.5625ZM506.628 78.1094L506.722 85.75H499.175C497.394 85.75 495.847 85.9531 494.534 86.3594C493.222 86.7656 492.144 87.3438 491.3 88.0938C490.456 88.8125 489.831 89.6562 489.425 90.625C489.05 91.5938 488.863 92.6562 488.863 93.8125C488.863 94.9688 489.128 96.0156 489.659 96.9531C490.191 97.8594 490.956 98.5781 491.956 99.1094C492.956 99.6094 494.128 99.8594 495.472 99.8594C497.503 99.8594 499.269 99.4531 500.769 98.6406C502.269 97.8281 503.425 96.8281 504.238 95.6406C505.081 94.4531 505.519 93.3281 505.55 92.2656L509.113 97.9844C508.613 99.2656 507.925 100.594 507.05 101.969C506.206 103.344 505.128 104.641 503.816 105.859C502.503 107.047 500.925 108.031 499.081 108.812C497.238 109.562 495.05 109.938 492.519 109.938C489.3 109.938 486.378 109.297 483.753 108.016C481.159 106.703 479.097 104.906 477.566 102.625C476.066 100.312 475.316 97.6875 475.316 94.75C475.316 92.0938 475.816 89.7344 476.816 87.6719C477.816 85.6094 479.284 83.875 481.222 82.4688C483.191 81.0312 485.644 79.9531 488.581 79.2344C491.519 78.4844 494.925 78.1094 498.8 78.1094H506.628Z" fill="#F7B239"/>
<line x1="294.5" y1="122.5" x2="606.5" y2="122.5" stroke="#0A0E1A" stroke-width="3"/>
<circle cx="451" cy="122.5" r="5.5" fill="#F7B239" stroke="white" stroke-width="4"/>
<path d="M301.586 139.094H304.143L310.664 155.322L317.172 139.094H319.742L311.648 159H309.652L301.586 139.094ZM300.752 139.094H303.008L303.377 151.234V159H300.752V139.094ZM318.307 139.094H320.562V159H317.938V151.234L318.307 139.094ZM333.537 156.471V148.855C333.537 148.272 333.419 147.766 333.182 147.338C332.954 146.9 332.607 146.563 332.143 146.326C331.678 146.089 331.104 145.971 330.42 145.971C329.782 145.971 329.221 146.08 328.738 146.299C328.264 146.518 327.891 146.805 327.617 147.16C327.353 147.516 327.221 147.898 327.221 148.309H324.691C324.691 147.78 324.828 147.256 325.102 146.736C325.375 146.217 325.767 145.747 326.277 145.328C326.797 144.9 327.417 144.562 328.137 144.316C328.866 144.061 329.677 143.934 330.57 143.934C331.646 143.934 332.594 144.116 333.414 144.48C334.243 144.845 334.891 145.396 335.355 146.135C335.829 146.864 336.066 147.78 336.066 148.883V155.773C336.066 156.266 336.107 156.79 336.189 157.346C336.281 157.902 336.413 158.38 336.586 158.781V159H333.947C333.82 158.708 333.719 158.321 333.646 157.838C333.574 157.346 333.537 156.89 333.537 156.471ZM333.975 150.031L334.002 151.809H331.445C330.725 151.809 330.083 151.868 329.518 151.986C328.952 152.096 328.479 152.264 328.096 152.492C327.713 152.72 327.421 153.007 327.221 153.354C327.02 153.691 326.92 154.087 326.92 154.543C326.92 155.008 327.025 155.432 327.234 155.814C327.444 156.197 327.758 156.503 328.178 156.73C328.606 156.949 329.13 157.059 329.75 157.059C330.525 157.059 331.208 156.895 331.801 156.566C332.393 156.238 332.863 155.837 333.209 155.363C333.564 154.889 333.756 154.429 333.783 153.982L334.863 155.199C334.799 155.582 334.626 156.006 334.344 156.471C334.061 156.936 333.683 157.382 333.209 157.811C332.744 158.23 332.188 158.581 331.541 158.863C330.903 159.137 330.183 159.273 329.381 159.273C328.378 159.273 327.499 159.077 326.742 158.686C325.995 158.294 325.411 157.77 324.992 157.113C324.582 156.448 324.377 155.705 324.377 154.885C324.377 154.092 324.532 153.395 324.842 152.793C325.152 152.182 325.598 151.676 326.182 151.275C326.765 150.865 327.467 150.555 328.287 150.346C329.107 150.136 330.023 150.031 331.035 150.031H333.975ZM342.574 146.531V159H340.045V144.207H342.506L342.574 146.531ZM347.195 144.125L347.182 146.477C346.972 146.431 346.771 146.404 346.58 146.395C346.398 146.376 346.188 146.367 345.951 146.367C345.368 146.367 344.853 146.458 344.406 146.641C343.96 146.823 343.581 147.078 343.271 147.406C342.962 147.734 342.715 148.126 342.533 148.582C342.36 149.029 342.246 149.521 342.191 150.059L341.48 150.469C341.48 149.576 341.567 148.737 341.74 147.953C341.923 147.169 342.201 146.477 342.574 145.875C342.948 145.264 343.422 144.79 343.996 144.453C344.579 144.107 345.272 143.934 346.074 143.934C346.257 143.934 346.466 143.956 346.703 144.002C346.94 144.038 347.104 144.079 347.195 144.125ZM358.146 155.076C358.146 154.712 358.064 154.374 357.9 154.064C357.745 153.745 357.422 153.458 356.93 153.203C356.447 152.939 355.717 152.711 354.742 152.52C353.922 152.346 353.179 152.141 352.514 151.904C351.857 151.667 351.297 151.38 350.832 151.043C350.376 150.706 350.025 150.309 349.779 149.854C349.533 149.398 349.41 148.865 349.41 148.254C349.41 147.671 349.538 147.119 349.793 146.6C350.057 146.08 350.426 145.62 350.9 145.219C351.383 144.818 351.962 144.503 352.637 144.275C353.311 144.048 354.063 143.934 354.893 143.934C356.077 143.934 357.089 144.143 357.928 144.562C358.766 144.982 359.409 145.542 359.855 146.244C360.302 146.937 360.525 147.707 360.525 148.555H357.996C357.996 148.145 357.873 147.748 357.627 147.365C357.39 146.973 357.039 146.65 356.574 146.395C356.118 146.139 355.558 146.012 354.893 146.012C354.191 146.012 353.621 146.121 353.184 146.34C352.755 146.549 352.441 146.818 352.24 147.146C352.049 147.475 351.953 147.821 351.953 148.186C351.953 148.459 351.999 148.705 352.09 148.924C352.19 149.133 352.363 149.329 352.609 149.512C352.855 149.685 353.202 149.849 353.648 150.004C354.095 150.159 354.665 150.314 355.357 150.469C356.57 150.742 357.568 151.07 358.352 151.453C359.135 151.836 359.719 152.305 360.102 152.861C360.484 153.417 360.676 154.092 360.676 154.885C360.676 155.532 360.539 156.124 360.266 156.662C360.001 157.2 359.614 157.665 359.104 158.057C358.602 158.439 358.001 158.74 357.299 158.959C356.606 159.169 355.827 159.273 354.961 159.273C353.658 159.273 352.555 159.041 351.652 158.576C350.75 158.111 350.066 157.51 349.602 156.771C349.137 156.033 348.904 155.254 348.904 154.434H351.447C351.484 155.126 351.684 155.678 352.049 156.088C352.413 156.489 352.86 156.776 353.389 156.949C353.917 157.113 354.441 157.195 354.961 157.195C355.654 157.195 356.232 157.104 356.697 156.922C357.171 156.74 357.531 156.489 357.777 156.17C358.023 155.851 358.146 155.486 358.146 155.076ZM383.398 156.854V159H373.445V156.854H383.398ZM373.965 139.094V159H371.326V139.094H373.965ZM394.486 155.582V144.207H397.029V159H394.609L394.486 155.582ZM394.965 152.465L396.018 152.438C396.018 153.422 395.913 154.333 395.703 155.172C395.503 156.001 395.174 156.721 394.719 157.332C394.263 157.943 393.666 158.421 392.928 158.768C392.189 159.105 391.292 159.273 390.234 159.273C389.514 159.273 388.854 159.169 388.252 158.959C387.66 158.749 387.149 158.426 386.721 157.988C386.292 157.551 385.96 156.981 385.723 156.279C385.495 155.577 385.381 154.734 385.381 153.75V144.207H387.91V153.777C387.91 154.443 387.983 154.994 388.129 155.432C388.284 155.86 388.489 156.202 388.744 156.457C389.008 156.703 389.3 156.876 389.619 156.977C389.947 157.077 390.285 157.127 390.631 157.127C391.706 157.127 392.559 156.922 393.188 156.512C393.816 156.092 394.268 155.532 394.541 154.83C394.824 154.119 394.965 153.331 394.965 152.465ZM406.805 157.195C407.406 157.195 407.962 157.072 408.473 156.826C408.983 156.58 409.402 156.243 409.73 155.814C410.059 155.377 410.245 154.88 410.291 154.324H412.697C412.652 155.199 412.355 156.015 411.809 156.771C411.271 157.519 410.564 158.125 409.689 158.59C408.814 159.046 407.853 159.273 406.805 159.273C405.693 159.273 404.722 159.077 403.893 158.686C403.072 158.294 402.389 157.756 401.842 157.072C401.304 156.389 400.898 155.605 400.625 154.721C400.361 153.827 400.229 152.884 400.229 151.891V151.316C400.229 150.323 400.361 149.384 400.625 148.5C400.898 147.607 401.304 146.818 401.842 146.135C402.389 145.451 403.072 144.913 403.893 144.521C404.722 144.13 405.693 143.934 406.805 143.934C407.962 143.934 408.974 144.171 409.84 144.645C410.706 145.109 411.385 145.747 411.877 146.559C412.378 147.361 412.652 148.272 412.697 149.293H410.291C410.245 148.682 410.072 148.131 409.771 147.639C409.48 147.146 409.079 146.755 408.568 146.463C408.067 146.162 407.479 146.012 406.805 146.012C406.03 146.012 405.378 146.167 404.85 146.477C404.33 146.777 403.915 147.188 403.605 147.707C403.305 148.217 403.086 148.787 402.949 149.416C402.822 150.036 402.758 150.669 402.758 151.316V151.891C402.758 152.538 402.822 153.176 402.949 153.805C403.077 154.434 403.291 155.003 403.592 155.514C403.902 156.024 404.316 156.434 404.836 156.744C405.365 157.045 406.021 157.195 406.805 157.195ZM418.289 144.207V159H415.746V144.207H418.289ZM415.555 140.283C415.555 139.873 415.678 139.527 415.924 139.244C416.179 138.962 416.553 138.82 417.045 138.82C417.528 138.82 417.897 138.962 418.152 139.244C418.417 139.527 418.549 139.873 418.549 140.283C418.549 140.675 418.417 141.012 418.152 141.295C417.897 141.568 417.528 141.705 417.045 141.705C416.553 141.705 416.179 141.568 415.924 141.295C415.678 141.012 415.555 140.675 415.555 140.283ZM426.123 159H423.594V142.648C423.594 141.582 423.785 140.684 424.168 139.955C424.56 139.217 425.12 138.661 425.85 138.287C426.579 137.904 427.445 137.713 428.447 137.713C428.739 137.713 429.031 137.731 429.322 137.768C429.623 137.804 429.915 137.859 430.197 137.932L430.061 139.996C429.869 139.951 429.65 139.919 429.404 139.9C429.167 139.882 428.93 139.873 428.693 139.873C428.156 139.873 427.691 139.982 427.299 140.201C426.916 140.411 426.624 140.721 426.424 141.131C426.223 141.541 426.123 142.047 426.123 142.648V159ZM429.268 144.207V146.148H421.256V144.207H429.268ZM437.895 159.273C436.865 159.273 435.93 159.1 435.092 158.754C434.262 158.398 433.547 157.902 432.945 157.264C432.353 156.626 431.897 155.869 431.578 154.994C431.259 154.119 431.1 153.162 431.1 152.123V151.549C431.1 150.346 431.277 149.275 431.633 148.336C431.988 147.388 432.471 146.586 433.082 145.93C433.693 145.273 434.385 144.777 435.16 144.439C435.935 144.102 436.737 143.934 437.566 143.934C438.624 143.934 439.535 144.116 440.301 144.48C441.076 144.845 441.709 145.355 442.201 146.012C442.693 146.659 443.058 147.424 443.295 148.309C443.532 149.184 443.65 150.141 443.65 151.18V152.314H432.604V150.25H441.121V150.059C441.085 149.402 440.948 148.764 440.711 148.145C440.483 147.525 440.118 147.014 439.617 146.613C439.116 146.212 438.432 146.012 437.566 146.012C436.992 146.012 436.464 146.135 435.98 146.381C435.497 146.618 435.083 146.973 434.736 147.447C434.39 147.921 434.121 148.5 433.93 149.184C433.738 149.867 433.643 150.656 433.643 151.549V152.123C433.643 152.825 433.738 153.486 433.93 154.105C434.13 154.716 434.417 155.254 434.791 155.719C435.174 156.184 435.634 156.548 436.172 156.812C436.719 157.077 437.339 157.209 438.031 157.209C438.924 157.209 439.681 157.027 440.301 156.662C440.921 156.298 441.463 155.81 441.928 155.199L443.459 156.416C443.14 156.899 442.734 157.359 442.242 157.797C441.75 158.234 441.144 158.59 440.424 158.863C439.713 159.137 438.87 159.273 437.895 159.273ZM449.133 146.531V159H446.604V144.207H449.064L449.133 146.531ZM453.754 144.125L453.74 146.477C453.531 146.431 453.33 146.404 453.139 146.395C452.956 146.376 452.747 146.367 452.51 146.367C451.926 146.367 451.411 146.458 450.965 146.641C450.518 146.823 450.14 147.078 449.83 147.406C449.52 147.734 449.274 148.126 449.092 148.582C448.919 149.029 448.805 149.521 448.75 150.059L448.039 150.469C448.039 149.576 448.126 148.737 448.299 147.953C448.481 147.169 448.759 146.477 449.133 145.875C449.507 145.264 449.98 144.79 450.555 144.453C451.138 144.107 451.831 143.934 452.633 143.934C452.815 143.934 453.025 143.956 453.262 144.002C453.499 144.038 453.663 144.079 453.754 144.125ZM487.387 138H489.93V156.129L489.711 159H487.387V138ZM499.924 151.48V151.768C499.924 152.843 499.796 153.841 499.541 154.762C499.286 155.673 498.912 156.466 498.42 157.141C497.928 157.815 497.326 158.339 496.615 158.713C495.904 159.087 495.089 159.273 494.168 159.273C493.229 159.273 492.404 159.114 491.693 158.795C490.992 158.467 490.399 157.997 489.916 157.387C489.433 156.776 489.046 156.038 488.754 155.172C488.471 154.306 488.275 153.331 488.166 152.246V150.988C488.275 149.895 488.471 148.915 488.754 148.049C489.046 147.183 489.433 146.445 489.916 145.834C490.399 145.214 490.992 144.745 491.693 144.426C492.395 144.098 493.211 143.934 494.141 143.934C495.07 143.934 495.895 144.116 496.615 144.48C497.335 144.836 497.937 145.346 498.42 146.012C498.912 146.677 499.286 147.475 499.541 148.404C499.796 149.325 499.924 150.35 499.924 151.48ZM497.381 151.768V151.48C497.381 150.742 497.312 150.049 497.176 149.402C497.039 148.746 496.82 148.172 496.52 147.68C496.219 147.178 495.822 146.786 495.33 146.504C494.838 146.212 494.232 146.066 493.512 146.066C492.874 146.066 492.318 146.176 491.844 146.395C491.379 146.613 490.982 146.91 490.654 147.283C490.326 147.648 490.057 148.067 489.848 148.541C489.647 149.006 489.497 149.489 489.396 149.99V153.285C489.542 153.923 489.779 154.538 490.107 155.131C490.445 155.714 490.891 156.193 491.447 156.566C492.012 156.94 492.71 157.127 493.539 157.127C494.223 157.127 494.806 156.99 495.289 156.717C495.781 156.434 496.178 156.047 496.479 155.555C496.788 155.062 497.016 154.493 497.162 153.846C497.308 153.199 497.381 152.506 497.381 151.768ZM505.871 144.207V159H503.328V144.207H505.871ZM503.137 140.283C503.137 139.873 503.26 139.527 503.506 139.244C503.761 138.962 504.135 138.82 504.627 138.82C505.11 138.82 505.479 138.962 505.734 139.244C505.999 139.527 506.131 139.873 506.131 140.283C506.131 140.675 505.999 141.012 505.734 141.295C505.479 141.568 505.11 141.705 504.627 141.705C504.135 141.705 503.761 141.568 503.506 141.295C503.26 141.012 503.137 140.675 503.137 140.283ZM518.545 155.076C518.545 154.712 518.463 154.374 518.299 154.064C518.144 153.745 517.82 153.458 517.328 153.203C516.845 152.939 516.116 152.711 515.141 152.52C514.32 152.346 513.577 152.141 512.912 151.904C512.256 151.667 511.695 151.38 511.23 151.043C510.775 150.706 510.424 150.309 510.178 149.854C509.932 149.398 509.809 148.865 509.809 148.254C509.809 147.671 509.936 147.119 510.191 146.6C510.456 146.08 510.825 145.62 511.299 145.219C511.782 144.818 512.361 144.503 513.035 144.275C513.71 144.048 514.462 143.934 515.291 143.934C516.476 143.934 517.488 144.143 518.326 144.562C519.165 144.982 519.807 145.542 520.254 146.244C520.701 146.937 520.924 147.707 520.924 148.555H518.395C518.395 148.145 518.271 147.748 518.025 147.365C517.788 146.973 517.438 146.65 516.973 146.395C516.517 146.139 515.956 146.012 515.291 146.012C514.589 146.012 514.02 146.121 513.582 146.34C513.154 146.549 512.839 146.818 512.639 147.146C512.447 147.475 512.352 147.821 512.352 148.186C512.352 148.459 512.397 148.705 512.488 148.924C512.589 149.133 512.762 149.329 513.008 149.512C513.254 149.685 513.6 149.849 514.047 150.004C514.493 150.159 515.063 150.314 515.756 150.469C516.968 150.742 517.966 151.07 518.75 151.453C519.534 151.836 520.117 152.305 520.5 152.861C520.883 153.417 521.074 154.092 521.074 154.885C521.074 155.532 520.938 156.124 520.664 156.662C520.4 157.2 520.012 157.665 519.502 158.057C519.001 158.439 518.399 158.74 517.697 158.959C517.005 159.169 516.225 159.273 515.359 159.273C514.056 159.273 512.953 159.041 512.051 158.576C511.148 158.111 510.465 157.51 510 156.771C509.535 156.033 509.303 155.254 509.303 154.434H511.846C511.882 155.126 512.083 155.678 512.447 156.088C512.812 156.489 513.258 156.776 513.787 156.949C514.316 157.113 514.84 157.195 515.359 157.195C516.052 157.195 516.631 157.104 517.096 156.922C517.57 156.74 517.93 156.489 518.176 156.17C518.422 155.851 518.545 155.486 518.545 155.076ZM533.01 155.076C533.01 154.712 532.928 154.374 532.764 154.064C532.609 153.745 532.285 153.458 531.793 153.203C531.31 152.939 530.581 152.711 529.605 152.52C528.785 152.346 528.042 152.141 527.377 151.904C526.721 151.667 526.16 151.38 525.695 151.043C525.24 150.706 524.889 150.309 524.643 149.854C524.396 149.398 524.273 148.865 524.273 148.254C524.273 147.671 524.401 147.119 524.656 146.6C524.921 146.08 525.29 145.62 525.764 145.219C526.247 144.818 526.826 144.503 527.5 144.275C528.174 144.048 528.926 143.934 529.756 143.934C530.941 143.934 531.952 144.143 532.791 144.562C533.63 144.982 534.272 145.542 534.719 146.244C535.165 146.937 535.389 147.707 535.389 148.555H532.859C532.859 148.145 532.736 147.748 532.49 147.365C532.253 146.973 531.902 146.65 531.438 146.395C530.982 146.139 530.421 146.012 529.756 146.012C529.054 146.012 528.484 146.121 528.047 146.34C527.618 146.549 527.304 146.818 527.104 147.146C526.912 147.475 526.816 147.821 526.816 148.186C526.816 148.459 526.862 148.705 526.953 148.924C527.053 149.133 527.227 149.329 527.473 149.512C527.719 149.685 528.065 149.849 528.512 150.004C528.958 150.159 529.528 150.314 530.221 150.469C531.433 150.742 532.431 151.07 533.215 151.453C533.999 151.836 534.582 152.305 534.965 152.861C535.348 153.417 535.539 154.092 535.539 154.885C535.539 155.532 535.402 156.124 535.129 156.662C534.865 157.2 534.477 157.665 533.967 158.057C533.465 158.439 532.864 158.74 532.162 158.959C531.469 159.169 530.69 159.273 529.824 159.273C528.521 159.273 527.418 159.041 526.516 158.576C525.613 158.111 524.93 157.51 524.465 156.771C524 156.033 523.768 155.254 523.768 154.434H526.311C526.347 155.126 526.548 155.678 526.912 156.088C527.277 156.489 527.723 156.776 528.252 156.949C528.781 157.113 529.305 157.195 529.824 157.195C530.517 157.195 531.096 157.104 531.561 156.922C532.035 156.74 532.395 156.489 532.641 156.17C532.887 155.851 533.01 155.486 533.01 155.076ZM541.404 138V159H538.861V138H541.404ZM550.441 144.207L543.988 151.111L540.379 154.857L540.174 152.164L542.758 149.074L547.352 144.207H550.441ZM548.131 159L542.854 151.945L544.166 149.689L551.111 159H548.131ZM555.801 144.207V159H553.258V144.207H555.801ZM553.066 140.283C553.066 139.873 553.189 139.527 553.436 139.244C553.691 138.962 554.064 138.82 554.557 138.82C555.04 138.82 555.409 138.962 555.664 139.244C555.928 139.527 556.061 139.873 556.061 140.283C556.061 140.675 555.928 141.012 555.664 141.295C555.409 141.568 555.04 141.705 554.557 141.705C554.064 141.705 553.691 141.568 553.436 141.295C553.189 141.012 553.066 140.675 553.066 140.283ZM562.377 147.146V159H559.834V144.207H562.24L562.377 147.146ZM561.857 151.043L560.682 151.002C560.691 149.99 560.823 149.056 561.078 148.199C561.333 147.333 561.712 146.581 562.213 145.943C562.714 145.305 563.339 144.813 564.086 144.467C564.833 144.111 565.699 143.934 566.684 143.934C567.376 143.934 568.014 144.034 568.598 144.234C569.181 144.426 569.687 144.731 570.115 145.15C570.544 145.57 570.876 146.107 571.113 146.764C571.35 147.42 571.469 148.213 571.469 149.143V159H568.939V149.266C568.939 148.491 568.807 147.871 568.543 147.406C568.288 146.941 567.923 146.604 567.449 146.395C566.975 146.176 566.419 146.066 565.781 146.066C565.034 146.066 564.41 146.199 563.908 146.463C563.407 146.727 563.006 147.092 562.705 147.557C562.404 148.021 562.186 148.555 562.049 149.156C561.921 149.749 561.857 150.378 561.857 151.043ZM571.441 149.648L569.746 150.168C569.755 149.357 569.887 148.577 570.143 147.83C570.407 147.083 570.785 146.417 571.277 145.834C571.779 145.251 572.394 144.79 573.123 144.453C573.852 144.107 574.686 143.934 575.625 143.934C576.418 143.934 577.12 144.038 577.73 144.248C578.35 144.458 578.87 144.781 579.289 145.219C579.717 145.647 580.041 146.199 580.26 146.873C580.479 147.548 580.588 148.35 580.588 149.279V159H578.045V149.252C578.045 148.423 577.913 147.78 577.648 147.324C577.393 146.859 577.029 146.536 576.555 146.354C576.09 146.162 575.534 146.066 574.887 146.066C574.331 146.066 573.839 146.162 573.41 146.354C572.982 146.545 572.622 146.809 572.33 147.146C572.038 147.475 571.815 147.853 571.66 148.281C571.514 148.71 571.441 149.165 571.441 149.648ZM587.164 138V159H584.621V138H587.164ZM595.381 157.469L599.496 144.207H602.203L596.27 161.283C596.133 161.648 595.951 162.04 595.723 162.459C595.504 162.887 595.221 163.293 594.875 163.676C594.529 164.059 594.109 164.368 593.617 164.605C593.134 164.852 592.555 164.975 591.881 164.975C591.68 164.975 591.425 164.947 591.115 164.893C590.805 164.838 590.587 164.792 590.459 164.756L590.445 162.705C590.518 162.714 590.632 162.723 590.787 162.732C590.951 162.751 591.065 162.76 591.129 162.76C591.703 162.76 592.191 162.682 592.592 162.527C592.993 162.382 593.33 162.131 593.604 161.775C593.886 161.429 594.128 160.951 594.328 160.34L595.381 157.469ZM592.359 144.207L596.201 155.691L596.857 158.357L595.039 159.287L589.598 144.207H592.359Z" fill="#0A0E1A"/>
<path d="M466.715 147.953L469.695 145.834C470.27 145.442 470.712 145.05 471.021 144.658C471.34 144.257 471.5 143.71 471.5 143.018C471.5 142.48 471.29 141.992 470.871 141.555C470.452 141.108 469.859 140.885 469.094 140.885C468.565 140.885 468.118 141.008 467.754 141.254C467.389 141.5 467.116 141.828 466.934 142.238C466.751 142.639 466.66 143.081 466.66 143.564C466.66 143.975 466.76 144.398 466.961 144.836C467.161 145.273 467.439 145.729 467.795 146.203C468.15 146.677 468.556 147.178 469.012 147.707L478.432 159H475.396L467.672 149.758C466.988 148.956 466.378 148.222 465.84 147.557C465.302 146.882 464.878 146.23 464.568 145.602C464.268 144.973 464.117 144.321 464.117 143.646C464.117 142.607 464.322 141.732 464.732 141.021C465.152 140.301 465.735 139.755 466.482 139.381C467.23 139.007 468.105 138.82 469.107 138.82C470.083 138.82 470.921 139.016 471.623 139.408C472.334 139.791 472.881 140.301 473.264 140.939C473.646 141.568 473.838 142.261 473.838 143.018C473.838 143.656 473.724 144.23 473.496 144.74C473.268 145.242 472.949 145.702 472.539 146.121C472.138 146.54 471.669 146.951 471.131 147.352L467.18 150.291C466.523 150.774 466.045 151.234 465.744 151.672C465.443 152.109 465.247 152.497 465.156 152.834C465.074 153.171 465.033 153.44 465.033 153.641C465.033 154.288 465.174 154.88 465.457 155.418C465.74 155.956 466.168 156.389 466.742 156.717C467.326 157.036 468.055 157.195 468.93 157.195C469.695 157.195 470.438 157.022 471.158 156.676C471.887 156.32 472.539 155.819 473.113 155.172C473.688 154.516 474.143 153.736 474.48 152.834C474.827 151.923 475 150.915 475 149.812H477.27C477.27 150.715 477.183 151.567 477.01 152.369C476.837 153.171 476.568 153.919 476.203 154.611C475.848 155.295 475.392 155.919 474.836 156.484C474.754 156.566 474.69 156.662 474.645 156.771C474.599 156.881 474.535 156.977 474.453 157.059C473.77 157.797 472.926 158.353 471.924 158.727C470.93 159.091 469.932 159.273 468.93 159.273C467.608 159.273 466.464 159.032 465.498 158.549C464.541 158.066 463.803 157.4 463.283 156.553C462.764 155.705 462.504 154.734 462.504 153.641C462.504 152.802 462.682 152.064 463.037 151.426C463.402 150.788 463.898 150.191 464.527 149.635C465.165 149.079 465.895 148.518 466.715 147.953Z" fill="#0A0E1A" fill-opacity="0.6"/>
<g clip-path="url(#clip1_9_2)">
<path d="M97.6639 147.347C104.964 147.347 110.88 153.262 110.88 160.563C110.88 167.858 104.964 173.779 97.6639 173.779C90.3683 173.779 84.448 167.858 84.448 160.563C84.448 153.262 90.3683 147.347 97.6639 147.347Z" fill="#B27214"/>
<path d="M33.926 173.779C39.935 173.779 44.8053 178.649 44.8053 184.658C44.8053 190.672 39.935 195.542 33.926 195.542C27.9121 195.542 23.0418 190.672 23.0418 184.658C23.0418 178.649 27.9121 173.779 33.926 173.779Z" fill="#B27214"/>
<path d="M38.9787 107.704C43.9131 107.704 47.9158 111.707 47.9158 116.646C47.9158 121.581 43.9131 125.583 38.9787 125.583C34.0394 125.583 30.0367 121.581 30.0367 116.646C30.0367 111.707 34.0394 107.704 38.9787 107.704Z" fill="#B27214"/>
<path d="M58.0015 64.6946C105.664 64.6946 144.301 103.337 144.301 151C144.301 198.662 105.664 237.304 58.0015 237.304C10.3337 237.304 -28.3034 198.662 -28.3034 151C-28.3034 103.337 10.3337 64.6946 58.0015 64.6946ZM110.88 160.563C110.88 153.262 104.964 147.347 97.6639 147.347C90.3683 147.347 84.448 153.262 84.448 160.563C84.448 167.858 90.3683 173.779 97.6639 173.779C104.964 173.779 110.88 167.858 110.88 160.563ZM47.9158 116.646C47.9158 111.707 43.9131 107.704 38.9787 107.704C34.0394 107.704 30.0367 111.707 30.0367 116.646C30.0367 121.581 34.0394 125.583 38.9787 125.583C43.9131 125.583 47.9158 121.581 47.9158 116.646ZM44.8053 184.658C44.8053 178.649 39.935 173.779 33.926 173.779C27.9121 173.779 23.0418 178.649 23.0418 184.658C23.0418 190.672 27.9121 195.542 33.926 195.542C39.935 195.542 44.8053 190.672 44.8053 184.658Z" fill="#F7B239"/>
<path d="M13.597 151C13.597 110.562 41.4094 76.6234 78.9507 67.2609C72.2432 65.5878 65.2271 64.6946 58.0015 64.6946C10.3337 64.6946 -28.3034 103.337 -28.3034 151C-28.3034 198.662 10.3337 237.304 58.0015 237.304C65.2271 237.304 72.2432 236.411 78.9507 234.738C41.4094 225.376 13.597 191.437 13.597 151Z" fill="#E09B2D"/>
<path d="M127.062 183.85C126.581 183.85 126.092 183.756 125.621 183.557C123.741 182.76 122.863 180.59 123.66 178.71C127.381 169.928 129.267 160.605 129.267 151C129.267 124.815 114.914 100.779 91.8092 88.2717C90.0134 87.2996 89.3459 85.0562 90.318 83.2604C91.2901 81.4646 93.533 80.7967 95.3293 81.7693C120.824 95.5698 136.662 122.098 136.662 151C136.662 161.601 134.578 171.895 130.468 181.594C129.87 183.004 128.502 183.85 127.062 183.85Z" fill="white"/>
<path d="M78.5243 82.698C80.5661 82.698 82.2214 81.0427 82.2214 79.0009C82.2214 76.959 80.5661 75.3038 78.5243 75.3038C76.4824 75.3038 74.8272 76.959 74.8272 79.0009C74.8272 81.0427 76.4824 82.698 78.5243 82.698Z" fill="white"/>
<path d="M58 61C8.37371 61 -32 101.374 -32 151C-32 200.626 8.37371 241 58 241C107.626 241 148 200.626 148 151C148 101.374 107.626 61 58 61ZM58 233.606C12.4514 233.606 -24.6058 196.549 -24.6058 151C-24.6058 105.451 12.4514 68.3942 58 68.3942C103.549 68.3942 140.606 105.451 140.606 151C140.606 196.549 103.549 233.606 58 233.606Z" fill="#333333"/>
<path d="M38.9762 104.008C32.0085 104.008 26.3401 109.677 26.3401 116.644C26.3401 123.611 32.0085 129.28 38.9762 129.28C45.944 129.28 51.6129 123.611 51.6129 116.644C51.6129 109.677 45.944 104.008 38.9762 104.008ZM38.9762 121.886C36.0861 121.886 33.7343 119.534 33.7343 116.644C33.7343 113.754 36.0861 111.402 38.9762 111.402C41.8669 111.402 44.2187 113.754 44.2187 116.644C44.2187 119.534 41.8674 121.886 38.9762 121.886Z" fill="#333333"/>
<path d="M97.6639 143.651C88.3388 143.651 80.7524 151.237 80.7524 160.562C80.7524 169.887 88.3388 177.474 97.6639 177.474C106.989 177.474 114.576 169.887 114.576 160.562C114.576 151.237 106.989 143.651 97.6639 143.651ZM97.6639 170.08C92.416 170.08 88.1466 165.811 88.1466 160.563C88.1466 155.315 92.416 151.045 97.6639 151.045C102.912 151.045 107.182 155.315 107.182 160.563C107.182 165.811 102.912 170.08 97.6639 170.08Z" fill="#333333"/>
<path d="M33.9241 170.08C25.8846 170.08 19.3447 176.62 19.3447 184.659C19.3447 192.698 25.8851 199.239 33.9241 199.239C41.963 199.239 48.5034 192.698 48.5034 184.659C48.5034 176.62 41.9635 170.08 33.9241 170.08ZM33.9241 191.844C29.9622 191.844 26.7389 188.621 26.7389 184.659C26.7389 180.698 29.9622 177.474 33.9241 177.474C37.8859 177.474 41.1092 180.698 41.1092 184.659C41.1092 188.621 37.8859 191.844 33.9241 191.844Z" fill="#333333"/>
<path d="M94.5534 115.291C96.5952 115.291 98.2505 113.635 98.2505 111.593C98.2505 109.552 96.5952 107.896 94.5534 107.896C92.5115 107.896 90.8563 109.552 90.8563 111.593C90.8563 113.635 92.5115 115.291 94.5534 115.291Z" fill="#333333"/>
<path d="M12.1576 147.159C14.1994 147.159 15.8547 145.504 15.8547 143.462C15.8547 141.421 14.1994 139.765 12.1576 139.765C10.1157 139.765 8.46048 141.421 8.46048 143.462C8.46048 145.504 10.1157 147.159 12.1576 147.159Z" fill="#333333"/>
<path d="M69.6794 197.686C71.7212 197.686 73.3765 196.031 73.3765 193.989C73.3765 191.947 71.7212 190.292 69.6794 190.292C67.6375 190.292 65.9823 191.947 65.9823 193.989C65.9823 196.031 67.6375 197.686 69.6794 197.686Z" fill="#333333"/>
</g>
<g clip-path="url(#clip2_9_2)">
<path d="M871.673 67.3394C879.987 67.3394 886.724 74.0763 886.724 82.3908C886.724 90.6997 879.987 97.4422 871.673 97.4422C863.364 97.4422 856.621 90.6997 856.621 82.3908C856.621 74.0763 863.364 67.3394 871.673 67.3394Z" fill="#B27214"/>
<path d="M799.082 97.4422C805.926 97.4422 811.473 102.989 811.473 109.832C811.473 116.682 805.926 122.228 799.082 122.228C792.233 122.228 786.687 116.682 786.687 109.832C786.687 102.989 792.233 97.4422 799.082 97.4422Z" fill="#B27214"/>
<path d="M804.837 22.1908C810.457 22.1908 815.015 26.7494 815.015 32.3748C815.015 37.9945 810.457 42.5531 804.837 42.5531C799.211 42.5531 794.653 37.9945 794.653 32.3748C794.653 26.7494 799.211 22.1908 804.837 22.1908Z" fill="#B27214"/>
<path d="M826.502 -26.7922C880.784 -26.7922 924.788 17.2167 924.788 71.4994C924.788 125.782 880.784 169.791 826.502 169.791C772.213 169.791 728.21 125.782 728.21 71.4994C728.21 17.2167 772.213 -26.7922 826.502 -26.7922ZM886.724 82.3908C886.724 74.0763 879.987 67.3394 871.673 67.3394C863.364 67.3394 856.621 74.0763 856.621 82.3908C856.621 90.6997 863.364 97.4422 871.673 97.4422C879.987 97.4422 886.724 90.6997 886.724 82.3908ZM815.015 32.3748C815.015 26.7494 810.457 22.1908 804.837 22.1908C799.211 22.1908 794.653 26.7494 794.653 32.3748C794.653 37.9945 799.211 42.5531 804.837 42.5531C810.457 42.5531 815.015 37.9945 815.015 32.3748ZM811.473 109.833C811.473 102.989 805.926 97.4422 799.082 97.4422C792.233 97.4422 786.686 102.989 786.686 109.833C786.686 116.682 792.233 122.228 799.082 122.228C805.926 122.228 811.473 116.682 811.473 109.833Z" fill="#F7B239"/>
<path d="M775.93 71.4994C775.93 25.4459 807.605 -13.2067 850.36 -23.8695C842.721 -25.775 834.731 -26.7922 826.502 -26.7922C772.213 -26.7922 728.21 17.2167 728.21 71.4994C728.21 125.782 772.213 169.791 826.502 169.791C834.731 169.791 842.721 168.774 850.36 166.868C807.605 156.206 775.93 117.553 775.93 71.4994Z" fill="#E09B2D"/>
<path d="M905.154 108.913C904.606 108.913 904.049 108.806 903.513 108.578C901.372 107.671 900.371 105.2 901.279 103.059C905.517 93.057 907.665 82.4385 907.665 71.4994C907.665 41.6779 891.319 14.3036 865.005 0.0594606C862.96 -1.04764 862.2 -3.60262 863.307 -5.64783C864.414 -7.69305 866.968 -8.45376 869.014 -7.3461C898.049 8.37114 916.087 38.5834 916.087 71.4994C916.087 83.5737 913.713 95.2971 909.033 106.343C908.352 107.949 906.794 108.913 905.154 108.913Z" fill="white"/>
<path d="M826.5 -31C769.981 -31 724 14.9812 724 71.5C724 128.019 769.981 174 826.5 174C883.019 174 929 128.019 929 71.5C929 14.9812 883.019 -31 826.5 -31ZM826.5 165.579C774.625 165.579 732.421 123.375 732.421 71.5C732.421 19.6246 774.625 -22.5788 826.5 -22.5788C878.375 -22.5788 920.579 19.6246 920.579 71.5C920.579 123.375 878.375 165.579 826.5 165.579Z" fill="#333333"/>
<path d="M804.834 17.9813C796.899 17.9813 790.443 24.4376 790.443 32.3725C790.443 40.3075 796.899 46.7637 804.834 46.7637C812.77 46.7637 819.226 40.3075 819.226 32.3725C819.226 24.4376 812.77 17.9813 804.834 17.9813ZM804.834 38.3426C801.543 38.3426 798.864 35.6641 798.864 32.3725C798.864 29.081 801.543 26.4025 804.834 26.4025C808.126 26.4025 810.805 29.081 810.805 32.3725C810.805 35.6641 808.127 38.3426 804.834 38.3426Z" fill="#333333"/>
<path d="M871.673 63.1299C861.053 63.1299 852.412 71.77 852.412 82.3902C852.412 93.0104 861.053 101.651 871.673 101.651C882.293 101.651 890.934 93.0104 890.934 82.3902C890.934 71.77 882.293 63.1299 871.673 63.1299ZM871.673 93.2299C865.696 93.2299 860.834 88.3676 860.834 82.3908C860.834 76.414 865.696 71.5517 871.673 71.5517C877.65 71.5517 882.512 76.414 882.512 82.3908C882.512 88.3676 877.65 93.2299 871.673 93.2299Z" fill="#333333"/>
<path d="M799.08 93.2299C789.924 93.2299 782.476 100.679 782.476 109.834C782.476 118.99 789.925 126.438 799.08 126.438C808.236 126.438 815.684 118.99 815.684 109.834C815.684 100.679 808.236 93.2299 799.08 93.2299ZM799.08 118.017C794.568 118.017 790.897 114.346 790.897 109.834C790.897 105.322 794.568 101.651 799.08 101.651C803.592 101.651 807.263 105.322 807.263 109.834C807.263 114.346 803.592 118.017 799.08 118.017Z" fill="#333333"/>
<path d="M868.13 30.8309C870.456 30.8309 872.341 28.9458 872.341 26.6203C872.341 24.2949 870.456 22.4098 868.13 22.4098C865.805 22.4098 863.92 24.2949 863.92 26.6203C863.92 28.9458 865.805 30.8309 868.13 30.8309Z" fill="#333333"/>
<path d="M774.291 67.1261C776.616 67.1261 778.501 65.2409 778.501 62.9155C778.501 60.59 776.616 58.7049 774.291 58.7049C771.965 58.7049 770.08 60.59 770.08 62.9155C770.08 65.2409 771.965 67.1261 774.291 67.1261Z" fill="#333333"/>
<path d="M839.802 124.671C842.127 124.671 844.012 122.785 844.012 120.46C844.012 118.135 842.127 116.249 839.802 116.249C837.476 116.249 835.591 118.135 835.591 120.46C835.591 122.785 837.476 124.671 839.802 124.671Z" fill="#333333"/>
</g>
<g clip-path="url(#clip3_9_2)">
<path d="M707.027 155.978C710.069 155.978 712.533 158.443 712.533 161.484C712.533 164.524 710.069 166.991 707.027 166.991C703.987 166.991 701.52 164.524 701.52 161.484C701.52 158.443 703.987 155.978 707.027 155.978Z" fill="#B27214"/>
<path d="M680.469 166.991C682.973 166.991 685.002 169.02 685.002 171.524C685.002 174.03 682.973 176.059 680.469 176.059C677.963 176.059 675.934 174.03 675.934 171.524C675.934 169.02 677.963 166.991 680.469 166.991Z" fill="#B27214"/>
<path d="M682.574 139.46C684.63 139.46 686.298 141.128 686.298 143.186C686.298 145.242 684.63 146.91 682.574 146.91C680.516 146.91 678.849 145.242 678.849 143.186C678.849 141.128 680.516 139.46 682.574 139.46Z" fill="#B27214"/>
<path d="M690.501 121.539C710.36 121.539 726.459 137.64 726.459 157.5C726.459 177.359 710.36 193.46 690.501 193.46C670.639 193.46 654.54 177.359 654.54 157.5C654.54 137.64 670.639 121.539 690.501 121.539ZM712.533 161.484C712.533 158.443 710.069 155.978 707.027 155.978C703.987 155.978 701.52 158.443 701.52 161.484C701.52 164.524 703.987 166.991 707.027 166.991C710.069 166.991 712.533 164.524 712.533 161.484ZM686.298 143.186C686.298 141.128 684.63 139.46 682.574 139.46C680.516 139.46 678.849 141.128 678.849 143.186C678.849 145.242 680.516 146.91 682.574 146.91C684.63 146.91 686.298 145.242 686.298 143.186ZM685.002 171.524C685.002 169.02 682.973 166.991 680.469 166.991C677.963 166.991 675.934 169.02 675.934 171.524C675.934 174.03 677.963 176.059 680.469 176.059C682.973 176.059 685.002 174.03 685.002 171.524Z" fill="#F7B239"/>
<path d="M671.999 157.5C671.999 140.651 683.587 126.51 699.229 122.609C696.435 121.912 693.511 121.539 690.501 121.539C670.639 121.539 654.54 137.64 654.54 157.5C654.54 177.359 670.639 193.46 690.501 193.46C693.511 193.46 696.435 193.088 699.229 192.391C683.587 188.49 671.999 174.349 671.999 157.5Z" fill="#E09B2D"/>
<path d="M719.276 171.188C719.075 171.188 718.872 171.148 718.676 171.065C717.892 170.733 717.526 169.829 717.858 169.046C719.409 165.387 720.195 161.502 720.195 157.5C720.195 146.589 714.214 136.574 704.587 131.363C703.839 130.958 703.561 130.023 703.966 129.275C704.371 128.527 705.305 128.249 706.054 128.654C716.677 134.404 723.276 145.457 723.276 157.5C723.276 161.917 722.407 166.206 720.695 170.248C720.446 170.835 719.876 171.188 719.276 171.188Z" fill="white"/>
<path d="M699.052 129.041C699.903 129.041 700.592 128.351 700.592 127.5C700.592 126.65 699.903 125.96 699.052 125.96C698.201 125.96 697.511 126.65 697.511 127.5C697.511 128.351 698.201 129.041 699.052 129.041Z" fill="white"/>
<path d="M690.5 120C669.822 120 653 136.822 653 157.5C653 178.178 669.822 195 690.5 195C711.178 195 728 178.178 728 157.5C728 136.822 711.178 120 690.5 120ZM690.5 191.919C671.521 191.919 656.081 176.479 656.081 157.5C656.081 138.521 671.521 123.081 690.5 123.081C709.479 123.081 724.919 138.521 724.919 157.5C724.919 176.479 709.479 191.919 690.5 191.919Z" fill="#333333"/>
<path d="M682.573 137.92C679.67 137.92 677.308 140.282 677.308 143.185C677.308 146.088 679.67 148.45 682.573 148.45C685.477 148.45 687.839 146.088 687.839 143.185C687.839 140.282 685.477 137.92 682.573 137.92ZM682.573 145.369C681.369 145.369 680.389 144.389 680.389 143.185C680.389 141.981 681.369 141.001 682.573 141.001C683.778 141.001 684.758 141.981 684.758 143.185C684.758 144.389 683.778 145.369 682.573 145.369Z" fill="#333333"/>
<path d="M707.027 154.438C703.141 154.438 699.98 157.599 699.98 161.484C699.98 165.37 703.141 168.531 707.027 168.531C710.912 168.531 714.073 165.37 714.073 161.484C714.073 157.599 710.912 154.438 707.027 154.438ZM707.027 165.45C704.84 165.45 703.061 163.671 703.061 161.484C703.061 159.298 704.84 157.519 707.027 157.519C709.213 157.519 710.992 159.298 710.992 161.484C710.992 163.671 709.214 165.45 707.027 165.45Z" fill="#333333"/>
<path d="M680.468 165.45C677.119 165.45 674.394 168.175 674.394 171.525C674.394 174.874 677.119 177.599 680.468 177.599C683.818 177.599 686.543 174.874 686.543 171.525C686.543 168.175 683.818 165.45 680.468 165.45ZM680.468 174.519C678.818 174.519 677.475 173.175 677.475 171.525C677.475 169.874 678.818 168.531 680.468 168.531C682.119 168.531 683.462 169.874 683.462 171.525C683.462 173.175 682.119 174.519 680.468 174.519Z" fill="#333333"/>
<path d="M705.731 142.621C706.581 142.621 707.271 141.931 707.271 141.081C707.271 140.23 706.581 139.54 705.731 139.54C704.88 139.54 704.19 140.23 704.19 141.081C704.19 141.931 704.88 142.621 705.731 142.621Z" fill="#333333"/>
<path d="M671.399 155.9C672.25 155.9 672.939 155.21 672.939 154.359C672.939 153.509 672.25 152.819 671.399 152.819C670.548 152.819 669.859 153.509 669.859 154.359C669.859 155.21 670.548 155.9 671.399 155.9Z" fill="#333333"/>
<path d="M695.366 176.953C696.217 176.953 696.907 176.263 696.907 175.412C696.907 174.561 696.217 173.872 695.366 173.872C694.516 173.872 693.826 174.561 693.826 175.412C693.826 176.263 694.516 176.953 695.366 176.953Z" fill="#333333"/>
</g>
<g clip-path="url(#clip4_9_2)">
<path d="M213.027 65.9778C216.069 65.9778 218.533 68.4425 218.533 71.4844C218.533 74.5243 216.069 76.991 213.027 76.991C209.987 76.991 207.52 74.5243 207.52 71.4844C207.52 68.4425 209.987 65.9778 213.027 65.9778Z" fill="#B27214"/>
<path d="M186.469 76.991C188.973 76.991 191.002 79.0203 191.002 81.5241C191.002 84.0299 188.973 86.0592 186.469 86.0592C183.963 86.0592 181.934 84.0299 181.934 81.5241C181.934 79.0203 183.963 76.991 186.469 76.991Z" fill="#B27214"/>
<path d="M188.574 49.4601C190.63 49.4601 192.298 51.1279 192.298 53.1859C192.298 55.2419 190.63 56.9097 188.574 56.9097C186.516 56.9097 184.849 55.2419 184.849 53.1859C184.849 51.1279 186.516 49.4601 188.574 49.4601Z" fill="#B27214"/>
<path d="M196.501 31.5394C216.36 31.5394 232.459 47.6403 232.459 67.4998C232.459 87.3593 216.36 103.46 196.501 103.46C176.639 103.46 160.54 87.3593 160.54 67.4998C160.54 47.6403 176.639 31.5394 196.501 31.5394ZM218.533 71.4844C218.533 68.4426 216.068 65.9778 213.027 65.9778C209.987 65.9778 207.52 68.4426 207.52 71.4844C207.52 74.5243 209.987 76.9911 213.027 76.9911C216.068 76.9911 218.533 74.5243 218.533 71.4844ZM192.298 53.1859C192.298 51.1278 190.63 49.46 188.574 49.46C186.516 49.46 184.849 51.1278 184.849 53.1859C184.849 55.2419 186.516 56.9097 188.574 56.9097C190.63 56.9097 192.298 55.2419 192.298 53.1859ZM191.002 81.5241C191.002 79.0203 188.973 76.9911 186.469 76.9911C183.963 76.9911 181.934 79.0203 181.934 81.5241C181.934 84.0299 183.963 86.0592 186.469 86.0592C188.973 86.0592 191.002 84.0299 191.002 81.5241Z" fill="#F7B239"/>
<path d="M177.999 67.4998C177.999 50.6509 189.587 36.5098 205.229 32.6087C202.435 31.9116 199.511 31.5394 196.501 31.5394C176.639 31.5394 160.54 47.6403 160.54 67.4998C160.54 87.3593 176.639 103.46 196.501 103.46C199.511 103.46 202.435 103.088 205.229 102.391C189.587 98.49 177.999 84.3487 177.999 67.4998Z" fill="#E09B2D"/>
<path d="M225.276 81.1876C225.075 81.1876 224.872 81.1484 224.676 81.0652C223.892 80.7333 223.526 79.8292 223.858 79.0458C225.409 75.3867 226.195 71.5019 226.195 67.4998C226.195 56.5895 220.214 46.5745 210.587 41.3632C209.839 40.9582 209.561 40.0234 209.966 39.2752C210.371 38.5269 211.305 38.2486 212.054 38.6539C222.677 44.4041 229.276 55.4573 229.276 67.4998C229.276 71.9172 228.407 76.2062 226.695 80.2476C226.446 80.835 225.876 81.1876 225.276 81.1876Z" fill="white"/>
<path d="M205.052 39.0408C205.903 39.0408 206.592 38.3511 206.592 37.5004C206.592 36.6496 205.903 35.9599 205.052 35.9599C204.201 35.9599 203.511 36.6496 203.511 37.5004C203.511 38.3511 204.201 39.0408 205.052 39.0408Z" fill="white"/>
<path d="M196.5 30C175.822 30 159 46.8224 159 67.5C159 88.1776 175.822 105 196.5 105C217.178 105 234 88.1776 234 67.5C234 46.8224 217.178 30 196.5 30ZM196.5 101.919C177.521 101.919 162.081 86.4788 162.081 67.5C162.081 48.5212 177.521 33.0809 196.5 33.0809C215.479 33.0809 230.919 48.5212 230.919 67.5C230.919 86.4788 215.479 101.919 196.5 101.919Z" fill="#333333"/>
<path d="M188.573 47.92C185.67 47.92 183.308 50.282 183.308 53.1851C183.308 56.0881 185.67 58.4501 188.573 58.4501C191.477 58.4501 193.839 56.0881 193.839 53.1851C193.839 50.282 191.477 47.92 188.573 47.92ZM188.573 55.3692C187.369 55.3692 186.389 54.3893 186.389 53.1851C186.389 51.9808 187.369 51.0009 188.573 51.0009C189.778 51.0009 190.758 51.9808 190.758 53.1851C190.758 54.3893 189.778 55.3692 188.573 55.3692Z" fill="#333333"/>
<path d="M213.027 64.4378C209.141 64.4378 205.98 67.5988 205.98 71.4842C205.98 75.3697 209.141 78.5307 213.027 78.5307C216.912 78.5307 220.073 75.3697 220.073 71.4842C220.073 67.5988 216.912 64.4378 213.027 64.4378ZM213.027 75.45C210.84 75.45 209.061 73.6711 209.061 71.4844C209.061 69.2978 210.84 67.5189 213.027 67.5189C215.213 67.5189 216.992 69.2978 216.992 71.4844C216.992 73.6711 215.213 75.45 213.027 75.45Z" fill="#333333"/>
<path d="M186.468 75.45C183.119 75.45 180.394 78.1751 180.394 81.5247C180.394 84.8743 183.119 87.5994 186.468 87.5994C189.818 87.5994 192.543 84.8743 192.543 81.5247C192.543 78.1751 189.818 75.45 186.468 75.45ZM186.468 84.5185C184.818 84.5185 183.475 83.1755 183.475 81.5247C183.475 79.874 184.818 78.5309 186.468 78.5309C188.119 78.5309 189.462 79.874 189.462 81.5247C189.462 83.1755 188.119 84.5185 186.468 84.5185Z" fill="#333333"/>
<path d="M211.731 52.6211C212.581 52.6211 213.271 51.9314 213.271 51.0806C213.271 50.2298 212.581 49.5402 211.731 49.5402C210.88 49.5402 210.19 50.2298 210.19 51.0806C210.19 51.9314 210.88 52.6211 211.731 52.6211Z" fill="#333333"/>
<path d="M177.399 65.8998C178.25 65.8998 178.939 65.2101 178.939 64.3593C178.939 63.5086 178.25 62.8189 177.399 62.8189C176.548 62.8189 175.859 63.5086 175.859 64.3593C175.859 65.2101 176.548 65.8998 177.399 65.8998Z" fill="#333333"/>
<path d="M201.366 86.9527C202.217 86.9527 202.907 86.263 202.907 85.4122C202.907 84.5614 202.217 83.8717 201.366 83.8717C200.516 83.8717 199.826 84.5614 199.826 85.4122C199.826 86.263 200.516 86.9527 201.366 86.9527Z" fill="#333333"/>
</g>
</g>
<defs>
<clipPath id="clip0_9_2">
<rect width="900" height="200" fill="white"/>
</clipPath>
<clipPath id="clip1_9_2">
<rect width="180" height="180" fill="white" transform="translate(-32 61)"/>
</clipPath>
<clipPath id="clip2_9_2">
<rect width="205" height="205" fill="white" transform="translate(724 -31)"/>
</clipPath>
<clipPath id="clip3_9_2">
<rect width="75" height="75" fill="white" transform="translate(653 120)"/>
</clipPath>
<clipPath id="clip4_9_2">
<rect width="75" height="75" fill="white" transform="translate(159 30)"/>
</clipPath>
</defs>
</svg>
